<svg width="107" height="32" viewBox="0 0 107 32" fill="none" xmlns="http://www.w3.org/2000/svg">
<g clip-path="url(#clip0_519_16464)">
<path d="M58.1787 31.7657C58.203 31.3245 58.2473 30.881 58.2473 30.4398C58.2473 23.6234 58.2693 16.8093 58.2296 9.99523C58.2296 9.03346 58.497 8.6693 59.3857 8.81636C59.4828 8.82454 59.5804 8.82454 59.6775 8.81636C60.3606 8.82804 61.2029 8.5946 61.6782 8.93075C62.0739 9.21321 62.0407 10.1633 62.2131 10.8893C62.3726 10.8221 62.5216 10.73 62.6552 10.6162C66.1502 6.64772 72.4925 8.32614 74.0289 13.7186C74.6764 15.8485 74.6485 18.1432 73.9494 20.2549C72.4395 24.7556 67.9806 26.0068 64.6337 24.7089C63.8136 24.3914 63.1194 23.7168 62.2949 23.1565V31.7634L58.1787 31.7657ZM62.0385 16.8256C62.0031 19.5265 63.7738 21.6018 66.1945 21.6928C68.6151 21.7839 70.5096 19.6409 70.5096 16.891C70.5096 14.1411 68.7411 11.9888 66.3558 12.0168C64.0302 12.0355 62.191 13.6509 62.0407 16.8233L62.0385 16.8256Z" fill="black"/>
<path d="M39.793 31.7657C39.8129 29.4313 39.8438 27.1156 39.8482 24.7906C39.8482 19.8277 39.8659 14.8648 39.8327 9.90419C39.8327 9.05681 40.0538 8.68798 40.8784 8.81637C41.0411 8.82572 41.2042 8.82572 41.3669 8.81637C42.0478 8.83738 42.8812 8.62028 43.3565 8.95877C43.7212 9.21555 43.6395 10.1773 43.7677 10.894C43.9273 10.8301 44.0764 10.7403 44.2098 10.6279C47.6717 6.63372 54.2151 8.29347 55.6233 13.896C56.3837 16.9307 56.2644 19.8884 54.3257 22.4679C51.8188 25.8037 47.0969 26.1142 44.1568 23.2009C44.117 23.1588 44.0462 23.1518 43.8936 23.0888V31.7634L39.793 31.7657ZM52.0001 16.8443C52.0001 14.0431 50.2713 11.9981 47.8861 11.9865C45.5008 11.9748 43.6394 14.0874 43.635 16.8653C43.635 19.5919 45.4036 21.7045 47.8087 21.6742C50.7887 21.6462 52.2079 19.097 52.0001 16.8443Z" fill="black"/>
<path d="M0.688601 12.9319C0.688601 9.33461 0.715111 5.73965 0.670898 2.14236C0.670898 1.22728 0.938398 0.975169 1.78949 0.996178C4.4953 1.04987 7.20332 0.930815 9.90471 1.03353C15.3429 1.23895 19.6182 3.95852 20.8672 10.1376C21.9018 15.2593 20.1864 20.3296 16.4305 22.9207C14.4078 24.3214 12.122 24.8256 9.75661 24.8886C7.08617 24.961 4.4113 24.877 1.73865 24.9236C0.933981 24.9377 0.664269 24.6902 0.673111 23.8288C0.710692 20.1942 0.688601 16.5619 0.688601 12.9319ZM4.89986 12.8922C4.89986 15.2266 4.92638 17.561 4.88437 19.8744C4.87111 20.6447 5.12092 20.9202 5.83053 20.8922C7.45534 20.8221 9.08238 20.8431 10.705 20.7288C13.4727 20.535 15.8602 18.5834 16.5079 15.7495C16.8058 14.2931 16.8805 12.7956 16.729 11.3142C16.4725 8.32849 14.5913 5.99644 11.7992 5.43151C9.84283 5.03467 7.7958 5.14205 5.79297 4.99031C5.02367 4.93195 4.86668 5.30079 4.87774 6.02445C4.92195 8.30514 4.89986 10.5998 4.89986 12.8922Z" fill="black"/>
<path d="M33.0941 15.7772C33.4434 13.6039 32.9018 12.32 31.3057 11.9185C29.3161 11.4166 27.6294 11.6243 26.4998 14.3182C25.5802 14.0848 24.6407 13.8327 23.7078 13.5712C23.1706 13.4195 23.2236 13.0646 23.4049 12.6188C24.2715 10.4618 25.8366 9.20124 27.9655 8.67834C29.7822 8.23087 31.6826 8.34596 33.439 9.00982C35.6098 9.80818 36.9318 11.6127 36.976 14.0171C37.0467 17.3693 37.0091 20.7261 37.0356 24.0783C37.0356 24.6946 36.8146 24.9467 36.2266 24.9093C35.6094 24.8556 34.9891 24.8556 34.3719 24.9093C33.5672 24.9957 33.3129 24.6455 33.4014 23.8518C33.4231 23.4226 33.4231 22.9925 33.4014 22.5633C33.2313 22.6735 33.0741 22.8044 32.9327 22.9531C31.5909 25.0821 28.9536 25.5793 26.6214 24.9327C24.2892 24.286 23.144 22.4559 23.2236 19.7597C23.2426 18.6971 23.624 17.6775 24.2977 16.888C24.9714 16.0986 25.8923 15.5923 26.8911 15.4621C28.4982 15.2286 30.1694 15.4434 31.8119 15.4994C32.2461 15.5528 32.6751 15.6458 33.0941 15.7772ZM33.0941 19.9511C33.1914 19.5542 33.0167 18.7232 32.82 18.6672C31.6439 18.3357 30.4237 18.0042 29.2167 17.9995C28.9543 17.9909 28.693 18.0396 28.4493 18.1425C28.2056 18.2453 27.9845 18.4002 27.8001 18.5974C27.6156 18.7946 27.4717 19.0299 27.3773 19.2885C27.2829 19.5471 27.24 19.8236 27.2514 20.1005C27.3354 21.1696 28.2351 21.9353 29.462 21.968" fill="black"/>
<path d="M88.3465 18.9101C89.3104 19.3116 90.2366 19.7038 91.1695 20.0773C91.7465 20.3107 91.5321 20.7006 91.3552 21.0741C90.2389 23.4411 88.404 24.8278 85.9325 25.0682C84.6072 25.2221 83.2665 25.1305 81.9711 24.7974C77.4967 23.5205 76.1041 19.2182 76.5285 15.6676C76.9463 12.166 78.6883 9.69393 82.0307 8.72049C85.1256 7.81942 88.3775 8.90957 89.989 11.3443C91.07 12.9784 91.2756 14.8202 91.1407 16.7368C91.0965 17.3881 90.6987 17.5328 90.1239 17.5281C87.2501 17.5048 84.3763 17.5141 81.5201 17.5281C80.4148 17.5281 80.2999 17.6752 80.6359 18.7817C81.1112 20.3784 82.2076 21.2842 83.7308 21.5339C85.7557 21.8678 87.1462 21.2305 87.9486 19.7271C88.0724 19.4937 88.1785 19.2462 88.3465 18.9101ZM87.2213 14.7082C87.3562 13.604 86.914 12.8617 86.116 12.3575C84.7741 11.5101 83.3925 11.5451 82.0639 12.3761C81.2504 12.885 80.6491 13.597 80.5938 14.7105L87.2213 14.7082Z" fill="black"/>
<path d="M98.0834 10.2217C99.0031 9.66847 99.8519 8.95648 100.82 8.62033C102.39 8.07641 103.882 8.53395 105.02 9.80152C106.238 11.1625 106.316 12.8736 105.998 14.6127C105.964 14.7948 105.591 15.0212 105.363 15.0352C104.552 15.0866 103.734 15.0352 102.92 15.0609C102.396 15.0749 102.275 14.8158 102.257 14.3092C102.193 12.6401 101.45 11.7624 100.192 11.7881C98.866 11.8161 98.0215 12.8596 98.0171 14.5287C98.0171 17.6474 97.9884 20.7638 98.0326 23.8802C98.0437 24.7089 97.7938 24.989 97.0268 24.9097C96.0673 24.814 94.7896 25.1431 94.2347 24.6179C93.7484 24.151 94.0424 22.7504 94.0402 21.7699C94.0269 17.8015 94.0534 13.833 94.0181 9.85055C94.0181 9.04051 94.2391 8.7137 95.0195 8.80941C95.4421 8.83628 95.8658 8.83628 96.2884 8.80941C97.8712 8.81875 97.8712 8.81875 98.0834 10.2217Z" fill="black"/>
</g>
<defs>
<clipPath id="clip0_519_16464">
<rect width="105.482" height="30.7766" fill="white" transform="translate(0.669922 0.989258)"/>
</clipPath>
</defs>
</svg>
