<svg width="72" height="77" viewBox="0 0 72 77" fill="none" xmlns="http://www.w3.org/2000/svg">
<path d="M2.22939 0.104769C4.62275 3.34063 7.99786 5.59545 11.0015 8.20468C26.2797 21.4768 41.68 34.6257 57.0431 47.8105C57.5738 48.2523 58.0621 49.0227 58.7838 48.7813C59.739 48.4577 59.3887 47.4613 59.394 46.7268C59.4206 39.9828 59.394 33.2389 59.4206 26.495C59.4235 25.813 59.2841 25.1375 59.0105 24.5091C58.7369 23.8806 58.3349 23.3122 57.8285 22.8379C53.9333 18.7751 50.0807 14.6713 46.212 10.5776C45.7764 10.1552 45.3636 9.71116 44.9755 9.24734C44.5085 8.63099 43.9566 7.91704 44.7208 7.19283C45.3682 6.58675 46.0528 7.05928 46.6524 7.39828C51.9009 10.3722 57.1015 13.4334 62.4083 16.3097C65.2209 17.8506 67.7151 20.013 71.0371 20.578V76.4864L69.9758 77H68.9144C67.455 73.5844 64.4726 71.3141 62.0474 68.669C45.4973 50.6269 28.8659 32.6362 12.1531 14.6969C8.20482 10.4646 4.60152 5.90363 0.10668 2.15928C-0.28956 0.402673 0.418011 -0.282164 2.22939 0.104769Z" fill="black"/>
<path d="M55.1252 31.7082C55.1252 33.3107 55.1252 34.4202 55.1252 35.5245C55.0934 36.3617 55.2154 37.3992 54.1276 37.6612C52.8752 37.9694 52.4931 36.8753 52.1057 36.0535C49.9034 31.4309 47.7382 26.7517 45.5677 22.0931C44.9521 20.7731 44.3365 19.4531 43.7793 18.1125C43.6252 17.8475 43.5769 17.537 43.6434 17.2398C43.7099 16.9426 43.8866 16.6793 44.1402 16.4997C44.7876 16.0734 45.3342 16.4381 45.7747 16.8747C48.9407 19.9524 51.8824 23.2389 54.5786 26.7106C55.7886 28.2926 54.9077 30.3625 55.1252 31.7082Z" fill="black"/>
</svg>
