<svg width="180" height="15" viewBox="0 0 180 15" fill="none" xmlns="http://www.w3.org/2000/svg">
<g clip-path="url(#clip0_519_16471)">
<path d="M135.845 0.801793C139.655 0.801793 143.352 0.749815 147.064 0.822613C148.893 0.857971 150.486 2.33885 150.797 4.02359C150.983 4.94691 150.847 5.906 150.412 6.7417C149.976 7.57741 149.267 8.23952 148.403 8.61815C148.121 8.74294 147.827 8.83862 147.464 8.97797L150.836 13.9843C148.88 14.4003 148.642 14.3088 147.637 12.8778C146.864 11.7755 146.09 10.6731 145.287 9.59362C145.095 9.33779 144.785 8.99876 144.522 8.9946C142.347 8.94676 140.17 8.96756 137.899 8.96756V14.0717H135.845V0.801793ZM137.953 7.04155C141.081 7.04155 144.117 7.06028 147.154 7.02076C147.525 7.02076 147.944 6.76284 148.255 6.51949C149.026 5.91007 149.16 5.03237 148.88 4.17336C148.551 3.1542 147.739 2.64254 146.653 2.63838C144.126 2.63838 141.597 2.63838 139.069 2.63838C138.706 2.63838 138.343 2.66749 137.953 2.68621V7.04155Z" fill="black"/>
<path d="M69.1906 14.0508C67.6516 14.3024 66.4275 14.1714 65.2889 12.8486C62.6698 9.80979 59.8525 6.94157 57.1186 4.00264C56.885 3.75305 56.6765 3.48266 56.4554 3.22059L56.201 3.31629V14.0674H54.1553V0.876518C55.567 0.668526 56.7516 0.668527 57.8881 1.99552C60.5406 5.0946 63.4205 8.00025 66.2023 10.9912C66.4338 11.2387 66.6194 11.5257 66.8279 11.7961L67.1115 11.6713V0.839094H69.1864L69.1906 14.0508Z" fill="black"/>
<path d="M123.067 12.2328V14.0548H109.166V0.836914H123.04V2.60485H111.235V6.55669H119.001V8.40158H111.208V12.2286L123.067 12.2328Z" fill="black"/>
<path d="M0.270508 0.787309C4.04706 0.787309 7.72563 0.737384 11.4 0.806022C13.6209 0.8497 15.3288 2.79236 15.2829 5.00956C15.237 7.22675 13.4499 8.93853 11.1685 8.96141C8.63482 8.97597 6.10114 8.96141 3.56953 8.96141H2.33289V14.0697H0.270508V0.787309ZM2.33289 7.06036C5.4609 7.06036 8.4659 7.08947 11.475 7.03123C11.9317 7.03123 12.4697 6.70467 12.8117 6.36773C13.4978 5.69591 13.5458 4.8182 13.1788 3.96335C13.0193 3.55601 12.7353 3.20914 12.3669 2.97204C11.9985 2.73494 11.5646 2.61967 11.1268 2.64261C8.34635 2.64261 5.57008 2.64261 2.79797 2.64261C2.63862 2.66268 2.48235 2.7025 2.33289 2.76115V7.06036Z" fill="black"/>
<path d="M24.8545 14.0029C25.7178 12.3598 26.5603 10.7499 27.409 9.14214C28.7624 6.57968 30.1012 4.00682 31.5026 1.47139C31.684 1.14485 32.1907 0.897322 32.589 0.805805C34.0488 0.475098 34.8329 1.11155 35.5085 2.46974C37.3499 6.2136 39.3831 9.86387 41.3475 13.5536C41.4014 13.6753 41.4474 13.8004 41.4851 13.928C39.9461 14.4626 39.3268 14.3211 38.7971 12.9463C38.2236 11.4612 37.3374 10.9912 35.7567 11.1118C33.6546 11.2741 31.5276 11.1784 29.4131 11.1347C28.7875 11.1222 28.4497 11.3281 28.2349 11.8731C28.1202 12.1601 27.9575 12.4284 27.8178 12.705C26.9628 14.3627 26.9273 14.3815 24.8545 14.0029ZM33.1959 2.4947L29.6404 9.19206H36.7556L33.1959 2.4947Z" fill="black"/>
<path d="M179.664 14.0322C177.554 14.3255 177.454 14.3671 176.763 12.6699C176.248 11.4073 175.512 11.0413 174.19 11.1162C171.978 11.241 169.755 11.1682 167.538 11.139C166.95 11.139 166.543 11.2493 166.345 11.8462C166.228 12.1339 166.088 12.4121 165.928 12.6782C165.094 14.3109 165.094 14.3109 162.981 14.0322C163.167 13.6412 163.321 13.2793 163.505 12.9319C165.471 9.21303 167.502 5.52531 169.379 1.76065C169.978 0.556381 170.877 0.868384 171.792 0.762308C172.626 0.664552 172.91 1.145 173.233 1.76482C175.147 5.4338 177.095 9.08406 179.028 12.7426C179.247 13.1378 179.429 13.5413 179.664 14.0322ZM167.807 9.16727H174.897C173.69 6.90224 172.557 4.77656 171.352 2.51153L167.807 9.16727Z" fill="black"/>
<path d="M83.9467 6.79611V4.96785H88.0402V2.66747H81.7217V0.845459H96.6047V2.61547H90.2528V4.88048H94.3025V6.78778H90.2027V14.0675H88.1466V6.78778L83.9467 6.79611Z" fill="black"/>
</g>
<defs>
<clipPath id="clip0_519_16471">
<rect width="179.398" height="13.4945" fill="white" transform="translate(0.271484 0.720703)"/>
</clipPath>
</defs>
</svg>
