<svg width="106" height="44" viewBox="0 0 106 44" fill="none" xmlns="http://www.w3.org/2000/svg">
<g clip-path="url(#clip0_519_16458)">
<path d="M13.6772 0.638428C14.1213 0.697375 14.5653 0.759269 15.0094 0.816743C16.9243 1.06432 18.7627 1.55358 20.3382 2.77968C22.229 4.25335 23.0379 6.23987 22.8018 8.67438C22.5826 10.932 21.5869 12.8257 20.1671 14.4895C17.9609 17.0728 15.1749 18.6158 11.9504 19.3526C11.4357 19.469 10.9138 19.553 10.3524 19.6621C10.5023 20.1911 10.6352 20.7114 10.795 21.2227C11.4102 23.1827 12.2177 25.044 13.3958 26.7151C13.8257 27.3356 14.3425 27.8855 14.9288 28.3465C15.3995 28.7073 15.9676 28.9036 16.5519 28.9073C17.1362 28.911 17.7066 28.7219 18.1815 28.3671L18.2239 28.3347C18.7613 27.9515 19.3355 28.2374 19.4048 28.9241C19.4384 29.3199 19.3695 29.7179 19.2054 30.0766C18.6397 31.425 17.0275 32.9944 15.0037 32.8279C13.977 32.7454 13.1073 32.2826 12.3337 31.6033C11.3734 30.7618 10.6536 29.7185 10.0441 28.5881C9.08975 26.7724 8.37342 24.8314 7.91425 22.8172C7.89163 22.72 7.86475 22.6227 7.81949 22.4532C7.73747 22.6153 7.67808 22.7185 7.62999 22.8275C6.35719 25.6884 5.0844 28.5484 3.8116 31.4073C3.63199 31.8067 3.40714 32.1824 3.21622 32.5759C3.1983 32.6276 3.1703 32.6749 3.13397 32.7148C3.09764 32.7547 3.05377 32.7863 3.00514 32.8076C2.9565 32.8289 2.90416 32.8395 2.85141 32.8387C2.79865 32.8379 2.74661 32.8257 2.69861 32.8029C1.55733 32.4359 0.618292 31.8096 0.103516 30.6321V30.4671C0.116244 30.4538 0.134631 30.4435 0.141702 30.4288C0.816286 28.7414 1.45551 27.0393 2.16969 25.3696C5.19612 18.3029 8.23528 11.2425 11.2872 4.18851C11.3338 4.07798 11.3748 3.96451 11.4286 3.83041C11.3613 3.82565 11.2937 3.82565 11.2264 3.83041C10.1771 4.00805 9.1742 4.4094 8.28053 5.00935C7.00773 5.88471 6.04748 7.01649 5.65008 8.58301C5.47189 9.28743 5.45634 9.983 5.97112 10.5872C6.01546 10.6342 6.04879 10.6912 6.0685 10.7538C6.08821 10.8164 6.09375 10.8829 6.08471 10.9481C6.07567 11.0133 6.0523 11.0754 6.0164 11.1296C5.9805 11.1839 5.93306 11.2287 5.87777 11.2607C5.68065 11.4123 5.45194 11.5133 5.21026 11.5554C3.92757 11.716 2.59112 10.655 2.41435 9.29627C2.34431 8.75113 2.35432 8.19806 2.44404 7.65607C2.6887 6.18239 3.40996 4.96219 4.39426 3.90409C6.18183 1.97947 8.4361 1.06285 10.9577 0.768111C11.3678 0.71948 11.7807 0.685585 12.1923 0.645796L13.6772 0.638428ZM10.5857 15.8718C10.6174 15.8832 10.6501 15.8916 10.6833 15.8969C10.7184 15.8976 10.7534 15.8947 10.7879 15.888C12.9248 15.4577 14.9033 14.6369 16.6372 13.2472C17.8888 12.2436 18.9169 11.0485 19.4798 9.47606C20.1543 7.59565 19.5915 5.86408 17.9609 4.82072C17.2652 4.39894 16.5073 4.10016 15.7179 3.93651C15.5242 3.89083 15.462 3.98072 15.3955 4.14577C14.0331 7.4861 12.666 10.8264 11.2942 14.1668C11.0708 14.7356 10.8304 15.2956 10.5871 15.8718H10.5857Z" fill="black"/>
<path d="M41.2231 24.6769C41.0987 24.8243 40.9771 24.9628 40.8512 25.1013C40.1031 25.9369 39.2956 26.6958 38.2405 27.0819C37.0484 27.524 35.9198 27.4194 34.9709 26.4556C34.4617 25.9384 34.2213 25.2634 34.0672 24.5531C34.046 24.4558 34.0233 24.3586 33.9894 24.2038C33.8381 24.3895 33.7136 24.5384 33.592 24.6887C33.0105 25.4327 32.3249 26.0815 31.5584 26.6133C30.7296 27.1674 29.8401 27.4798 28.8445 27.3015C27.583 27.076 26.8957 26.2095 26.5336 24.9967C26.4997 24.8832 26.4728 24.7668 26.4445 24.6504C26.4162 24.5339 26.3936 24.4234 26.3554 24.2525C26.214 24.4337 26.1051 24.5737 25.992 24.7123C25.2212 25.6584 24.4038 26.5529 23.2809 27.0495C22.2358 27.5122 21.2077 27.4916 20.2729 26.7548C19.5573 26.1874 19.2447 25.3651 19.1075 24.4721C18.8106 22.5563 19.1882 20.7186 19.8514 18.9414C20.6745 16.7308 21.902 14.8151 23.6698 13.3001C24.6273 12.4852 25.6936 11.8854 26.9225 11.6791C27.2957 11.609 27.6757 11.5872 28.0539 11.6142C28.8289 11.6865 29.3394 12.1669 29.6661 12.8801C29.7298 13.0275 29.7835 13.1645 29.8613 13.3547C29.9377 13.2544 29.9928 13.1793 30.0508 13.1085C30.3478 12.7445 30.6405 12.3717 30.946 12.0195C31.3547 11.5406 31.8539 11.5022 32.3956 11.7248C32.6494 11.8146 32.87 11.9847 33.0266 12.2113C33.1833 12.438 33.2682 12.7099 33.2696 12.9892C33.2756 13.3363 33.211 13.6809 33.08 14.0001C32.4465 15.5386 31.7747 17.058 31.1341 18.5906C30.69 19.6517 30.2558 20.7201 30.0296 21.8607C29.9694 22.1571 29.9428 22.4598 29.9504 22.7626C29.9659 23.2592 30.2544 23.4862 30.7268 23.4198C31.1511 23.3594 31.4975 23.1163 31.8157 22.8304C32.5073 22.2144 33.0475 21.4599 33.568 20.6936C34.1181 19.8816 34.6583 19.0622 35.1957 18.2399C35.2865 18.0824 35.3654 17.9178 35.4319 17.7477C36.2422 15.9336 37.1601 14.1843 38.3622 12.6119C38.4937 12.4395 38.645 12.2848 38.7864 12.1153C38.923 11.9202 39.1153 11.7751 39.3357 11.7007C39.5562 11.6264 39.7936 11.6265 40.014 11.7012C40.2447 11.7616 40.4711 11.8389 40.6914 11.9326C41.3165 12.2273 41.7252 13.0039 41.3787 13.7511C40.8031 14.9934 40.1893 16.2151 39.6222 17.4603C39.0212 18.7866 38.4357 20.1129 37.8898 21.451C37.7411 21.8727 37.6585 22.3165 37.6451 22.7655C37.6098 23.2401 37.9167 23.5024 38.3523 23.383C38.6749 23.2924 38.9794 23.1427 39.2517 22.9409C39.9305 22.4384 40.4283 21.7487 40.9134 21.0575C41.2938 20.5152 41.6587 19.9611 42.0208 19.4041C42.1034 19.2657 42.1694 19.1172 42.2173 18.962C42.8962 17.0079 43.616 15.07 44.6215 13.2692C44.8791 12.8407 45.1625 12.4297 45.47 12.0387C45.582 11.8815 45.7345 11.7609 45.9098 11.6907C46.0851 11.6205 46.2759 11.6037 46.46 11.6422C47.0426 11.7087 47.5952 11.9457 48.0538 12.326C48.5205 12.7313 48.7737 13.3001 48.4201 14.0414C47.7314 15.49 47.0893 16.9637 46.4275 18.4285C46.3848 18.511 46.3709 18.6062 46.3879 18.6982C46.4374 18.6171 46.4854 18.5376 46.5293 18.4565C47.4089 17.0462 48.2688 15.6197 49.1781 14.2285C49.6908 13.418 50.3452 12.7151 51.1071 12.1566C52.9909 10.817 55.2083 12.0843 55.8179 13.6096C56.1066 14.2718 56.1355 15.0254 55.8985 15.7096C55.4558 16.9298 54.9679 18.1308 54.5239 19.351C54.2033 20.2352 53.9068 21.1278 53.6343 22.0287C53.5598 22.3213 53.5429 22.6266 53.5848 22.9262C53.5855 23.0016 53.6027 23.0759 53.6353 23.1433C53.6679 23.2107 53.7149 23.2694 53.7728 23.3148C53.8306 23.3603 53.8976 23.3913 53.9688 23.4054C54.0399 23.4195 54.1132 23.4164 54.183 23.3963C54.4945 23.3435 54.7926 23.2262 55.0599 23.0514C55.4068 22.8132 55.7184 22.5232 55.9848 22.1908C56.5759 21.4363 57.1345 20.6523 57.6818 19.8609C57.8204 19.6155 57.9341 19.3557 58.0212 19.0858C59.8739 14.6235 62.056 10.3528 64.8095 6.41217C65.7995 5.00334 66.8431 3.64608 68.1258 2.5143C68.5576 2.14979 69.0157 1.82066 69.4962 1.52988C70.0009 1.22797 70.5992 1.14487 71.1622 1.29852C71.8387 1.45353 72.4629 1.79504 72.9695 2.28735C73.5352 2.83261 73.7304 3.49135 73.5777 4.28418C73.3203 5.61049 72.7291 6.78943 72.0503 7.92858C70.5724 10.4014 68.7764 12.6178 66.8912 14.7546C65.3964 16.4494 63.8521 18.0969 62.3205 19.7578C62.2866 19.7837 62.2582 19.8165 62.2369 19.8542C62.2156 19.8919 62.2019 19.9338 62.1966 19.9772C62.1913 20.0206 62.1945 20.0647 62.2061 20.1068C62.2177 20.1489 62.2373 20.1881 62.2639 20.222C62.8084 21.2535 63.0827 22.3691 63.2963 23.5083C63.3068 23.5979 63.3415 23.6825 63.3963 23.7524C63.4511 23.8223 63.5238 23.8746 63.606 23.9032C63.9538 24.0679 64.3387 24.1284 64.7177 24.0779C65.0966 24.0274 65.4545 23.8679 65.7514 23.6173C66.3971 23.0992 66.9652 22.4838 67.4371 21.7914C67.9675 21.0458 68.4737 20.2794 68.98 19.5131C69.0736 19.3469 69.1495 19.1704 69.2063 18.987C69.9954 16.8782 71.1466 15.0258 72.7885 13.5256C73.8082 12.5942 74.9537 11.9046 76.3113 11.6717C76.6846 11.6028 77.0646 11.582 77.4427 11.6098C78.2163 11.6835 78.7268 12.1654 79.0507 12.8801C79.0846 12.9538 79.1157 13.0275 79.1469 13.1071C79.178 13.1867 79.1992 13.2397 79.2445 13.3532C79.3237 13.2471 79.3774 13.169 79.4368 13.0968C79.7338 12.7328 80.0265 12.3599 80.332 12.0077C80.7421 11.5302 81.2427 11.4978 81.783 11.7248C82.0365 11.8158 82.2566 11.9866 82.413 12.2136C82.5693 12.4407 82.654 12.7127 82.6555 12.9921C82.662 13.3306 82.5993 13.6667 82.4717 13.978C81.8395 15.5151 81.1692 17.0344 80.5271 18.5685C80.0788 19.6369 79.6348 20.7127 79.4142 21.8636C79.3482 22.2225 79.3358 22.5899 79.3774 22.9527C79.4184 23.3078 79.6602 23.4537 80.011 23.4302C80.3857 23.404 80.7401 23.2431 81.0136 22.9748C81.4379 22.571 81.8226 22.1289 82.2228 21.7015C82.2709 21.6485 82.3091 21.5851 82.3543 21.5291C82.9521 20.7953 83.373 19.9232 83.5819 18.9856C84.3625 15.6374 85.6523 12.4852 87.1768 9.43615C88.2643 7.26101 89.4749 5.16249 90.9853 3.27324C91.5694 2.5364 92.1945 1.85262 92.9582 1.31768C93.4263 0.99052 93.9269 0.689891 94.5138 0.810732C95.631 1.04063 96.4782 1.68757 96.918 2.7943C97.1358 3.33661 96.9788 3.92313 96.8571 4.47871C96.4993 6.11891 95.8021 7.61321 94.9819 9.0471C94.0414 10.6902 92.9567 12.2199 91.5878 13.5123C90.8891 14.1711 90.1368 14.7458 89.2345 15.0744C89.1476 15.1108 89.0773 15.1804 89.0379 15.269C88.2474 17.2555 87.437 19.2361 87.0014 21.3479C86.9112 21.8147 86.8822 22.2921 86.9152 22.767C86.9421 23.2224 87.1839 23.3889 87.6223 23.4066C88.1526 23.4287 88.6009 23.1973 89.0238 22.9026C89.9162 22.2792 90.5794 21.4171 91.3205 20.6199C91.7858 20.1144 91.9583 19.5131 92.1266 18.8691C93.4729 13.663 95.6973 8.74784 98.6956 4.35345C99.3742 3.34415 100.181 2.43545 101.094 1.6522C101.236 1.52989 101.387 1.41494 101.541 1.30736C102.17 0.865258 102.836 0.608838 103.585 0.953678C104.476 1.36336 105.248 1.92483 105.519 2.96672C105.671 3.54735 105.504 4.13534 105.367 4.70565C104.99 6.27217 104.319 7.709 103.528 9.08541C102.583 10.7271 101.497 12.2553 100.125 13.5448C99.4324 14.1946 98.6843 14.7605 97.7905 15.0862C97.7048 15.1242 97.6357 15.1941 97.5968 15.2822C96.8119 17.2407 96.0143 19.1963 95.5787 21.2801C95.4802 21.7821 95.4464 22.2955 95.4783 22.8068C95.4995 23.2253 95.7357 23.4228 96.1387 23.3963C96.4886 23.3818 96.8331 23.3014 97.1556 23.159C97.8627 22.8245 98.4283 22.2748 98.9502 21.6735C99.7195 20.7893 100.452 19.8624 101.213 18.962C101.602 18.4978 101.996 18.0365 102.411 17.5974C102.587 17.4166 102.79 17.2673 103.012 17.1553C103.295 17.0079 103.539 17.1169 103.548 17.4412C103.575 17.8877 103.531 18.3359 103.418 18.7675C102.479 21.759 100.872 24.2775 98.4001 26.1358C97.2271 27.036 95.7776 27.4555 94.3271 27.3148C93.0755 27.2087 92.0644 26.2965 91.6995 24.9097C91.6754 24.8139 91.65 24.7182 91.6104 24.5693C91.4266 24.7579 91.2724 24.9186 91.1154 25.0748C90.2358 25.9472 89.2585 26.6575 88.0946 27.0642C87.3102 27.3334 86.4765 27.4086 85.6593 27.2838C84.2975 27.0893 83.5041 26.2066 83.1519 24.8537C83.1378 24.8007 83.1265 24.7476 83.1095 24.696C83.1095 24.6798 83.0869 24.6695 83.0501 24.6297C82.9158 24.7845 82.7842 24.9392 82.6485 25.091C81.9838 25.8396 81.2597 26.5087 80.3673 26.9537C78.5472 27.863 76.3651 27.2927 75.8291 24.587C75.8107 24.4927 75.7881 24.4013 75.7655 24.2923C75.2931 24.8198 74.8575 25.3386 74.3866 25.8205C73.7686 26.4512 73.07 26.9626 72.2228 27.2146C70.7662 27.6463 69.4736 27.0186 68.8782 25.5685C68.7212 25.1853 68.6279 24.7727 68.4935 24.3394C68.3974 24.4485 68.3026 24.5502 68.2107 24.6592C67.5361 25.4963 66.7965 26.2522 65.8744 26.8005C65.2833 27.1541 64.6568 27.3899 63.9638 27.3663C63.7446 27.3575 63.6951 27.4489 63.6993 27.6611C63.7392 29.2716 63.6155 30.8819 63.3302 32.4653C63.0361 34.0642 62.6005 35.6101 61.6982 36.9703C61.1325 37.8339 60.4042 38.5103 59.4114 38.7962C57.8275 39.253 56.5066 38.6635 55.6666 37.1427C55.1172 36.1207 54.7885 34.9861 54.7035 33.8181C54.5196 31.7107 54.8845 29.6594 55.3116 27.6154C55.3979 27.1969 55.5025 26.7813 55.6157 26.2891C55.4884 26.3731 55.412 26.4202 55.3328 26.4718C54.7106 26.9139 54.06 27.247 53.2921 27.3236C51.868 27.471 50.755 26.7504 50.2416 25.3474C49.8174 24.2083 49.8343 23.0455 50.0521 21.8695C50.3533 20.2485 50.9685 18.7277 51.5356 17.1936C51.678 16.8073 51.8017 16.4138 51.9062 16.0146C51.9125 15.884 51.8942 15.7533 51.8524 15.63C51.7292 15.6405 51.6087 15.6729 51.496 15.7258C50.6928 16.3005 50.0535 17.0521 49.4482 17.8361C47.7752 20.0039 46.525 22.431 45.4587 24.9672C45.1928 25.5999 44.9439 26.2385 44.712 26.883C44.6776 26.9966 44.6117 27.0971 44.5227 27.1719C44.4336 27.2466 44.3253 27.2922 44.2114 27.303C43.1408 27.4828 42.2315 27.0377 41.7365 26.0312C41.5418 25.5899 41.3704 25.1378 41.2231 24.6769ZM78.0395 15.3927C77.9943 14.3951 77.4441 13.9692 76.5376 14.2536C76.0402 14.4239 75.5905 14.7189 75.2281 15.1127C73.7163 16.6513 72.7192 18.514 72.0857 20.5963C71.8891 21.2447 71.7434 21.9108 71.8707 22.602C71.9838 23.2062 72.3982 23.5127 72.9851 23.4198C73.4407 23.3289 73.8559 23.087 74.1688 22.7302C75.2433 21.6073 76.0995 20.2788 76.6904 18.8176C77.0892 17.8685 77.4818 16.9155 77.8684 15.9586C77.9419 15.7803 77.983 15.5858 78.0395 15.3957V15.3927ZM28.6479 15.3927C28.5998 14.3892 28.0539 13.9677 27.1431 14.2521C26.6458 14.4225 26.1965 14.7181 25.835 15.1127C24.2369 16.7515 23.1961 18.7306 22.5936 20.9662C22.4338 21.485 22.3921 22.0355 22.472 22.574C22.5837 23.1929 22.9966 23.5142 23.592 23.4184C24.0785 23.3403 24.459 23.0544 24.7941 22.7095C25.8654 21.5833 26.719 20.253 27.3086 18.791C27.7003 17.8582 28.0822 16.9195 28.4612 15.9807C28.539 15.7995 28.5856 15.5946 28.6479 15.3972V15.3927ZM60.4891 24.4691C60.4493 24.5473 60.4144 24.628 60.3844 24.7108C59.9601 26.2817 59.485 27.8423 59.1116 29.4265C58.7623 30.8796 58.5007 32.3577 58.6152 33.8726C58.6506 34.3545 58.7354 34.8261 59.0395 35.2107C59.4496 35.7221 60.0549 35.6985 60.3759 35.1356C60.5793 34.7809 60.7408 34.4018 60.8567 34.0067C61.5639 31.5737 61.7053 29.0758 61.6006 26.5529C61.5811 26.4573 61.541 26.3676 61.4833 26.2906C61.216 25.8381 60.9402 25.3916 60.6771 24.9363C60.6039 24.7854 60.5411 24.6293 60.4891 24.4691ZM64.8236 13.5639L64.8788 13.6096C64.9439 13.5374 65.0117 13.4622 65.0754 13.3915C66.0385 12.2273 67.0327 11.0896 67.9547 9.89152C69.1469 8.34268 70.2868 6.74964 71.4337 5.16397C71.64 4.8543 71.8189 4.52581 71.9683 4.1825C71.9994 4.06558 72.0095 3.94366 71.998 3.82292C71.8891 3.82292 71.7604 3.77134 71.6727 3.81408C71.3107 3.99534 70.9161 4.1486 70.6163 4.41387C70.1467 4.83196 69.7145 5.29364 69.3251 5.79323C67.8897 7.62648 66.7795 9.68078 65.7188 11.7572C65.4105 12.357 65.1206 12.9627 64.8222 13.5654L64.8236 13.5639ZM95.8474 3.69029C95.6098 3.83766 95.3807 3.91576 95.2336 4.07639C94.806 4.52689 94.4087 5.00745 94.0443 5.5147C92.5282 7.73995 91.3459 10.1656 90.1976 12.6104C90.1861 12.6531 90.1809 12.6973 90.182 12.7416C92.1223 11.5258 95.9464 5.48375 95.8446 3.6844L95.8474 3.69029ZM104.389 3.78313C104.106 3.74187 103.891 3.91871 103.729 4.10734C103.268 4.61323 102.837 5.14874 102.44 5.7107C100.997 7.87553 99.8482 10.2172 98.7409 12.581C98.7234 12.6337 98.7106 12.6879 98.7027 12.7431C100.571 11.6511 104.419 5.58249 104.388 3.77724L104.389 3.78313Z" fill="black"/>
<path d="M63.8643 35.6752C64.1372 34.6333 64.4045 33.6194 64.6789 32.5702C65.3181 32.5982 65.9785 32.6218 66.639 32.6586C67.8128 32.722 68.9852 32.7883 70.159 32.8649C71.6307 32.9632 73.1024 33.0668 74.5742 33.1759C75.5783 33.2496 76.5823 33.3232 77.5864 33.419C78.8121 33.53 80.0335 33.6514 81.2507 33.783C82.3821 33.9068 83.5134 34.0335 84.6448 34.1912C87.6529 34.6112 90.6553 35.0563 93.5544 36.0613C95.8893 36.8718 97.1253 38.6697 97.732 41.0365C97.9001 41.663 97.8688 42.3295 97.6429 42.936C97.4124 43.5476 97.1451 43.695 96.5483 43.4548C95.6998 43.1114 94.8512 42.7179 94.0098 42.3495C90.6751 40.8891 87.2215 39.8443 83.7001 38.9704C80.644 38.2158 77.5596 37.6072 74.4554 37.1091C72.3722 36.7746 70.282 36.4887 68.1904 36.2072C66.7761 36.0171 65.3619 35.8712 63.9477 35.7032C63.919 35.6971 63.891 35.6877 63.8643 35.6752Z" fill="black"/>
<path d="M53.4514 34.7819L52.7443 34.7318C51.7543 34.6714 50.7516 34.6066 49.7546 34.552C48.0792 34.4617 46.4029 34.3757 44.7257 34.2941C43.7102 34.245 42.6944 34.2038 41.678 34.1704C35.776 33.9739 29.8721 33.8756 23.9663 33.8756C23.6493 33.8744 23.3347 33.8176 23.0358 33.7076C22.8506 33.6543 22.6874 33.5387 22.5718 33.3788C22.4562 33.2189 22.3946 33.0236 22.3965 32.8234C22.3965 32.3739 22.6596 32.0866 23.0428 31.9392C23.3151 31.8364 23.6018 31.7811 23.8914 31.7756C28.9118 31.7874 33.9333 31.8081 38.9556 31.8375C41.2269 31.8523 43.4981 31.8965 45.7694 31.9436C48.2004 31.9967 50.63 32.0718 53.0597 32.1278C53.3001 32.1278 53.3595 32.2059 53.3623 32.4609C53.3722 33.2125 53.4175 33.9729 53.4514 34.7819Z" fill="black"/>
<path d="M39.7677 10.0687C39.8257 9.27581 40.0901 8.64655 40.4055 8.03793C40.7627 7.32622 41.2278 6.67929 41.783 6.12215C42.2299 5.68005 42.7503 5.49289 43.3386 5.69184C43.7336 5.81637 44.108 6.00324 44.4488 6.24594C45.1191 6.75288 45.2266 7.55751 44.7472 8.26635C44.5463 8.54545 44.3194 8.80313 44.0698 9.0356C43.473 9.62507 42.8776 10.2145 42.2525 10.7701C42.0432 10.9496 41.79 11.0644 41.5213 11.1017C41.0157 11.1587 40.5086 11.0086 40.1071 10.6832C39.8752 10.5152 39.7338 10.2926 39.7677 10.0687Z" fill="black"/>
</g>
<defs>
<clipPath id="clip0_519_16458">
<rect width="105.482" height="42.9252" fill="white" transform="translate(0.0957031 0.638672)"/>
</clipPath>
</defs>
</svg>
