<svg width="106" height="85" viewBox="0 0 106 85" fill="none" xmlns="http://www.w3.org/2000/svg">
<g clip-path="url(#clip0_519_16418)">
<path d="M9.49513 84.9339C9.03756 84.7737 8.55127 84.7921 8.08139 84.7058C5.98028 84.3256 4.03922 83.6125 2.50032 82.0568C1.14814 80.6902 0.551035 78.9968 0.415611 77.1103C0.397145 76.839 0.477166 76.7691 0.748013 76.7691C2.5263 76.7842 4.30802 76.7842 6.09314 76.7691C6.32911 76.7691 6.42142 76.8287 6.45835 77.0692C6.7805 79.1839 8.2394 79.9833 10.1251 80.1518C11.118 80.2853 12.1279 80.2062 13.088 79.9196C13.9723 79.6257 14.7028 79.1469 14.9039 78.1378C15.0048 77.7365 14.9752 77.3135 14.8195 76.9302C14.6637 76.5469 14.39 76.2234 14.038 76.0067C13.2172 75.4621 12.2652 75.2402 11.3275 74.9915C9.5567 74.5209 7.74693 74.1839 6.02336 73.5304C5.03365 73.1819 4.10711 72.6745 3.28001 72.0281C1.8437 70.8485 1.21378 69.2949 1.15223 67.4535C1.05579 64.5764 2.44902 62.2172 5.03848 60.9841C5.83395 60.6053 6.67552 60.3324 7.54175 60.1724C10.045 59.7182 12.5339 59.71 14.9736 60.5176C17.4133 61.3253 19.2005 62.8974 19.9104 65.4868C20.032 65.9964 20.1211 66.5133 20.1772 67.0343C20.2059 67.2398 20.1402 67.2973 19.935 67.2953C18.1568 67.2953 16.3785 67.2953 14.6002 67.2953C14.395 67.2953 14.3457 67.211 14.315 67.0425C14.0051 65.382 12.696 64.56 11.1017 64.4387C10.1086 64.3627 9.12989 64.4182 8.22912 64.897C7.32835 65.3758 6.9221 66.1711 7.12318 67.0774C7.24219 67.62 7.61356 67.9591 8.07523 68.218C8.84263 68.6455 9.68389 68.8551 10.5375 69.0626C12.3677 69.5127 14.2308 69.86 15.9995 70.5238C17.1026 70.8993 18.1257 71.4786 19.0158 72.2316C20.5116 73.5632 21.0287 75.2854 21.0061 77.2336C20.9651 80.6245 18.9419 83.0022 15.8764 84.153C14.8488 84.5459 13.7687 84.7841 12.6714 84.86C12.6099 84.86 12.5401 84.86 12.5196 84.9339H9.49513Z" fill="black"/>
<path d="M105.984 50.7234C105.047 51.8948 104.103 53.06 103.175 54.2376C103.117 54.32 103.039 54.386 102.948 54.4292C102.857 54.4724 102.757 54.4913 102.656 54.4842C101.26 54.4664 99.863 54.4548 98.4664 54.4493C98.3842 54.4546 98.302 54.4384 98.2279 54.4024C98.1538 54.3664 98.0904 54.3117 98.0437 54.2438C97.1792 53.1477 96.3091 52.0517 95.4337 50.9556C95.3675 50.8789 95.3213 50.7869 95.2992 50.688C95.277 50.5891 95.2795 50.4862 95.3065 50.3884C95.6197 49.0403 95.9302 47.6922 96.238 46.3441C96.2542 46.2452 96.2955 46.1523 96.3581 46.0741C96.4206 45.996 96.5022 45.9354 96.595 45.8981C97.8467 45.3124 99.0922 44.7103 100.336 44.104C100.418 44.0581 100.51 44.0341 100.604 44.0341C100.698 44.0341 100.791 44.0581 100.873 44.104C102.115 44.7164 103.361 45.3186 104.61 45.9104C104.709 45.9501 104.796 46.0149 104.862 46.0985C104.929 46.1821 104.973 46.2816 104.989 46.3872C105.291 47.7621 105.605 49.1349 105.917 50.5076C105.935 50.5543 105.957 50.5991 105.984 50.6412V50.7234Z" fill="#06A0D9"/>
<path d="M105.985 20.8281C105.103 21.9235 104.208 23.0127 103.343 24.1162C103.25 24.2568 103.121 24.3703 102.97 24.445C102.819 24.5197 102.651 24.5531 102.483 24.5416C101.163 24.5129 99.8441 24.5232 98.5248 24.5416C98.4248 24.5484 98.3247 24.5291 98.2345 24.4855C98.1442 24.4419 98.0668 24.3756 98.0098 24.293C97.163 23.2148 96.3095 22.1413 95.449 21.0727C95.3774 20.9925 95.3273 20.8952 95.3036 20.7902C95.2799 20.6852 95.2834 20.5759 95.3136 20.4726C95.6228 19.1519 95.9258 17.8291 96.2226 16.5043C96.2419 16.3873 96.2909 16.2773 96.3649 16.1848C96.4389 16.0923 96.5355 16.0204 96.6453 15.9761C97.8764 15.4027 99.1075 14.8129 100.316 14.217C100.41 14.164 100.516 14.1362 100.624 14.1362C100.732 14.1362 100.838 14.164 100.932 14.217C102.163 14.8239 103.394 15.4219 104.625 16.0111C104.723 16.0531 104.808 16.12 104.873 16.205C104.937 16.29 104.978 16.3903 104.992 16.496C105.292 17.8832 105.608 19.2683 105.926 20.6535C105.94 20.6883 105.96 20.7208 105.983 20.75L105.985 20.8281Z" fill="#05A0D9"/>
<path d="M3.43187 16.9648H6.12394C6.27373 16.9648 6.40503 16.9319 6.44197 17.1703C6.80309 19.5315 8.39534 20.1851 10.203 20.3474C11.2905 20.444 12.3801 20.407 13.4142 19.9734C14.5961 19.4802 15.1419 18.5122 14.8875 17.3552C14.7397 16.6812 14.2719 16.2763 13.7035 15.9783C12.813 15.5159 11.8404 15.2919 10.8781 15.0474C9.01501 14.5747 7.12113 14.2048 5.33806 13.4259C4.66733 13.1399 4.03296 12.7749 3.4483 12.3388C1.78628 11.0729 1.11943 9.35688 1.14816 7.31003C1.19946 3.75065 3.2431 1.68736 5.92489 0.799567C9.17095 -0.275235 12.4416 -0.314282 15.6487 0.953698C18.1479 1.94219 19.6314 3.81642 20.0869 6.48595C20.2551 7.48061 20.2613 7.47855 19.2661 7.47855C17.7272 7.47855 16.1883 7.47855 14.6494 7.47855C14.4443 7.47855 14.3334 7.44772 14.2883 7.2155C14.0031 5.77695 13.0818 4.9878 11.6866 4.69804C10.5447 4.42572 9.34479 4.54214 8.27635 5.02891C7.31813 5.48102 6.88928 6.30305 7.09036 7.23811C7.21553 7.81353 7.61769 8.15878 8.1163 8.41978C8.91037 8.84518 9.7783 9.05685 10.6462 9.26441C12.5401 9.72063 14.4607 10.0864 16.2807 10.8098C17.2046 11.1551 18.0665 11.6478 18.8332 12.2689C20.4296 13.6068 21.0164 15.37 20.9713 17.3922C20.8994 20.705 19.0302 23.1957 15.7451 24.361C13.9491 24.9743 12.0487 25.2216 10.1558 25.0885C8.40765 24.9939 6.70462 24.7103 5.0939 23.9911C2.566 22.8608 0.990152 20.9742 0.518223 18.2122C0.466926 17.9101 0.458719 17.5957 0.415629 17.2956C0.376644 17.0326 0.454627 16.9463 0.735733 16.9524C1.6365 16.9771 2.53315 16.9648 3.43187 16.9648Z" fill="black"/>
<path d="M3.44409 46.8742C4.33049 46.8742 5.21484 46.8742 6.09919 46.8742C6.30438 46.8742 6.4111 46.8885 6.45008 47.1393C6.78043 49.3526 8.32754 50.1232 10.2481 50.2671C11.274 50.3431 12.3 50.3246 13.2746 49.9506C14.0194 49.665 14.635 49.219 14.8648 48.4072C15.1562 47.3797 14.7766 46.5104 13.8265 45.9699C13.0653 45.5363 12.222 45.3226 11.3848 45.1006C9.53813 44.6115 7.65248 44.2663 5.86325 43.5655C5.04957 43.2604 4.27855 42.8515 3.56925 42.3489C1.9811 41.1857 1.21165 39.6054 1.1583 37.6469C1.10085 35.4274 1.74104 33.5039 3.49538 32.0509C4.64987 31.1304 6.0201 30.5206 7.47601 30.2795C10.0142 29.7965 12.5462 29.7945 15.0207 30.6268C17.4953 31.4591 19.2106 33.0209 19.9124 35.5959C20.0312 36.0933 20.1176 36.5978 20.1709 37.1064C20.1997 37.3119 20.1545 37.4003 19.9186 37.3982C18.1355 37.3982 16.3544 37.3982 14.5714 37.3982C14.4606 37.3982 14.3785 37.4085 14.3231 37.2482C13.6255 35.2301 12.8334 34.6259 10.6933 34.5108C9.82074 34.4393 8.94563 34.6145 8.16749 35.0164C7.30571 35.485 6.91996 36.2659 7.09642 37.1475C7.22364 37.764 7.66889 38.1278 8.19622 38.3949C9.0457 38.8224 9.96698 39.0361 10.8862 39.254C12.8068 39.7081 14.7499 40.076 16.5802 40.8672C18.1704 41.5474 19.5738 42.4722 20.3289 44.0998C21.6647 46.9769 21.1497 51.3542 17.3886 53.5162C15.8695 54.3701 14.178 54.8709 12.4395 54.9814C10.2337 55.1602 8.06285 54.9814 5.96379 54.2642C3.63492 53.4627 1.82516 52.0591 0.922333 49.6732C0.643814 48.8895 0.472638 48.0717 0.413473 47.242C0.388851 46.9687 0.442205 46.8659 0.752037 46.8742C1.65281 46.8906 2.55152 46.8742 3.44409 46.8742Z" fill="black"/>
<path d="M68.7678 17.3631C66.8329 17.3631 64.896 17.3631 62.959 17.3631C62.8462 17.3631 62.6081 17.2419 62.6594 17.5419C62.8954 18.8962 63.4166 20.082 64.7257 20.7211C65.6608 21.1701 66.7348 21.2321 67.7152 20.8937C68.0344 20.7935 68.3298 20.6292 68.5834 20.4108C68.8371 20.1925 69.0436 19.9247 69.1905 19.6237C69.2726 19.4655 69.3424 19.3648 69.5517 19.3668C71.1685 19.3771 72.7834 19.3668 74.4002 19.3668C74.6198 19.3668 74.6813 19.3935 74.6054 19.6402C73.9673 21.7507 72.5535 23.1831 70.635 24.1346C68.9361 24.9731 67.1243 25.1786 65.253 24.9916C63.5232 24.8575 61.8699 24.2219 60.4947 23.1625C58.7506 21.7939 57.7657 19.9628 57.3841 17.8091C56.9737 15.5115 57.2281 13.2879 58.371 11.2185C59.793 8.65169 62.0069 7.22957 64.9083 6.88021C67.0176 6.62744 69.012 6.96447 70.832 8.11326C72.8983 9.41823 74.0145 11.3829 74.5828 13.7031C74.8377 14.7884 74.9706 15.8989 74.9788 17.0138C74.9788 17.3159 74.8906 17.3652 74.6136 17.3652C72.6664 17.3508 70.7171 17.3631 68.7678 17.3631ZM62.6635 14.0627H68.7042C69.4573 14.0627 69.4573 14.0627 69.2808 13.3311C68.9258 11.872 67.8548 10.865 66.4964 10.7438C64.9555 10.5937 63.6895 11.3048 63.0739 12.6776C62.8772 13.1172 62.7392 13.5808 62.6635 14.0565V14.0627Z" fill="black"/>
<path d="M68.7946 47.2565H62.9488C62.799 47.2565 62.602 47.1846 62.6574 47.4826C62.8626 48.6067 63.2525 49.6466 64.2271 50.3289C65.3823 51.1386 66.6504 51.2105 67.9472 50.7111C68.4878 50.4914 68.9269 50.0773 69.1783 49.55C69.2105 49.4622 69.2709 49.3875 69.35 49.3377C69.429 49.2879 69.5223 49.2657 69.6153 49.2746C71.1912 49.2746 72.7691 49.289 74.3346 49.2746C74.6322 49.2746 74.667 49.3445 74.5809 49.6158C73.9858 51.4982 72.7691 52.8546 71.0783 53.8122C67.8795 55.6268 63.3079 55.3042 60.4394 53.0395C58.724 51.6873 57.7596 49.8726 57.38 47.7477C56.982 45.5323 57.1933 43.3725 58.2439 41.3605C59.6925 38.5759 62.0296 37.0778 65.1382 36.7716C67.19 36.5661 69.1126 36.9339 70.8608 38.0498C72.9127 39.3589 74.0105 41.3153 74.5727 43.6211C74.8287 44.7062 74.9615 45.8169 74.9687 46.9318C74.9687 47.2093 74.8887 47.2627 74.6281 47.2607C72.6911 47.2524 70.7459 47.2565 68.7946 47.2565ZM65.9999 43.9684H68.7269C69.4553 43.9684 69.4553 43.9684 69.2809 43.243C68.9177 41.7222 67.8446 40.7337 66.3549 40.6474C64.9289 40.5652 63.7573 41.1098 63.0822 42.5689C62.9328 42.9203 62.812 43.2831 62.7211 43.654C62.6451 43.9232 62.7005 43.9766 62.9673 43.9746C63.9747 43.9664 64.9884 43.9746 65.9999 43.9746V43.9684Z" fill="black"/>
<path d="M34.3283 17.3632C32.3913 17.3632 30.4564 17.3632 28.5194 17.3632C28.2096 17.3632 28.1747 17.431 28.2363 17.7249C28.4414 18.6312 28.7513 19.4656 29.4222 20.1314C30.4687 21.1692 32.4098 21.4282 33.7024 20.7089C34.1454 20.4707 34.5038 20.101 34.7284 19.6505C34.7595 19.5622 34.8197 19.4872 34.8992 19.4378C34.9787 19.3885 35.0726 19.3678 35.1654 19.3792C36.744 19.3902 38.3212 19.3902 39.897 19.3792C40.1987 19.3792 40.2253 19.4553 40.1391 19.7266C39.8634 20.6521 39.3965 21.5092 38.7687 22.2424C38.1409 22.9756 37.3663 23.5685 36.495 23.9826C33.1833 25.6123 29.8716 25.4992 26.6871 23.6106C24.8568 22.5256 23.7427 20.8383 23.1743 18.7997C22.5239 16.4528 22.5936 14.1183 23.6011 11.8926C24.9389 8.93948 27.2739 7.28103 30.4913 6.89468C32.5719 6.64396 34.5458 6.97894 36.3432 8.09895C38.4074 9.38337 39.5318 11.3234 40.1145 13.6271C40.3832 14.736 40.521 15.8727 40.5249 17.0139C40.5249 17.2954 40.4695 17.3817 40.172 17.3776C38.2248 17.3488 36.2734 17.3632 34.3283 17.3632ZM28.2568 14.0628H34.3283C34.4822 14.0628 34.636 14.0628 34.7879 14.0628C34.9397 14.0628 34.9705 14.034 34.9479 13.8881C34.7284 12.5975 34.2133 11.5042 32.9289 10.9699C30.7559 10.0657 28.3696 11.6419 28.2568 14.0566V14.0628Z" fill="black"/>
<path d="M82.0562 39.6505C82.364 39.2764 82.5877 38.9846 82.8318 38.7113C84.2415 37.1433 86.0287 36.5843 88.0867 36.7487C91.2383 37.0015 93.0727 39.3073 93.3785 42.1761C93.4191 42.533 93.4403 42.8918 93.442 43.2509C93.442 46.8596 93.4421 50.4663 93.4523 54.075C93.4523 54.4387 93.3395 54.486 93.0214 54.486C91.4825 54.4696 89.9436 54.4655 88.4047 54.486C88.0436 54.486 87.9328 54.4141 87.9348 54.0318C87.9533 50.8979 87.9348 47.7659 87.9348 44.6319C87.9539 44.1443 87.9034 43.6565 87.7851 43.1831C87.4793 42.133 86.7981 41.4877 85.7106 41.3459C84.6231 41.2041 83.6834 41.5514 83.0042 42.4433C82.5328 43.0581 82.2774 43.8116 82.2778 44.5867C82.2641 47.7447 82.2641 50.904 82.2778 54.0647C82.2778 54.41 82.1875 54.4881 81.851 54.4757C80.2875 54.4572 78.724 54.4552 77.1584 54.4757C76.8076 54.4757 76.748 54.373 76.748 54.0442C76.7576 48.564 76.7576 43.0838 76.748 37.6036C76.748 37.3036 76.8199 37.2214 77.1235 37.2255C78.6624 37.2419 80.2013 37.2378 81.7402 37.2255C81.9803 37.2255 82.0706 37.2707 82.0624 37.5337C82.0419 38.2016 82.0562 38.8654 82.0562 39.6505Z" fill="black"/>
<path d="M34.3495 47.2563C32.4002 47.2563 30.4509 47.2563 28.5016 47.2563C28.2267 47.2563 28.1651 47.3035 28.2267 47.5953C28.4503 48.6332 28.8053 49.6052 29.6856 50.2669C30.9167 51.1753 32.2545 51.2534 33.6354 50.6553C34.119 50.4333 34.5076 50.0456 34.7311 49.562C34.7614 49.4733 34.821 49.3977 34.9001 49.3476C34.9793 49.2975 35.0731 49.276 35.1661 49.2867C36.7447 49.299 38.3219 49.299 39.8977 49.2867C40.2055 49.2867 40.2301 49.3689 40.1419 49.6422C39.3745 52.0117 37.7371 53.5777 35.4493 54.3689C32.0493 55.53 28.7807 55.2197 25.8793 52.9426C24.1393 51.5781 23.2304 49.6771 22.9062 47.5193C22.582 45.3615 22.8077 43.2201 23.8747 41.2534C25.3417 38.5469 27.6481 37.0898 30.693 36.7918C33.0342 36.5617 35.2071 37.0528 37.0743 38.5325C38.802 39.8929 39.713 41.7507 40.1911 43.8531C40.4104 44.866 40.5232 45.8992 40.5276 46.9357C40.5276 47.2008 40.4681 47.2748 40.1952 47.2727C38.2459 47.2501 36.2987 47.2563 34.3495 47.2563ZM31.6164 43.9681C32.6423 43.9681 33.6682 43.9681 34.6942 43.9681C34.8173 43.9681 34.9855 44.036 34.9486 43.775C34.5711 41.1815 32.5479 40.1519 30.4468 40.8485C29.1213 41.2883 28.4955 42.5769 28.2615 43.7688C28.2144 44.0175 28.3785 43.9743 28.5098 43.9743L31.6164 43.9681Z" fill="black"/>
<path d="M82.0568 9.73685C82.34 9.38954 82.5451 9.12032 82.7688 8.86138C84.2461 7.18239 86.1298 6.62546 88.3088 6.85563C91.2348 7.16595 93.0712 9.36488 93.3852 12.244C93.4306 12.6651 93.4525 13.0885 93.4508 13.512C93.4508 17.055 93.4508 20.6 93.4508 24.145C93.4508 24.4553 93.3893 24.556 93.061 24.5457C91.4715 24.5251 89.8813 24.5251 88.2904 24.5457C87.9908 24.5457 87.9395 24.4594 87.9395 24.1819C87.9491 21.0226 87.9491 17.8633 87.9395 14.704C87.9565 14.229 87.9081 13.7539 87.7959 13.2921C87.2768 11.4282 84.9766 10.7582 83.4726 12.0365C83.0898 12.3617 82.7844 12.7686 82.5789 13.2273C82.3733 13.686 82.2727 14.1849 82.2846 14.6875C82.2579 17.8338 82.264 20.9801 82.2846 24.1244C82.2846 24.4635 82.2086 24.5498 81.8742 24.5457C80.284 24.5251 78.6938 24.5313 77.1036 24.5457C76.843 24.5457 76.7568 24.4943 76.7568 24.2148C76.7664 18.6922 76.7664 13.1702 76.7568 7.64889C76.7568 7.37762 76.8327 7.3057 77.0995 7.30775C78.6507 7.31803 80.2019 7.32008 81.7552 7.30775C82.0117 7.30775 82.0732 7.38173 82.0671 7.62834C82.0445 8.28802 82.0568 8.95592 82.0568 9.73685Z" fill="black"/>
<path d="M48.0971 84.3854C45.9919 84.3854 43.9667 84.3854 41.9415 84.3854C41.7199 84.3854 41.6604 84.2579 41.5804 84.112L39.0956 79.5724C39.034 79.4635 38.9683 79.3545 38.8781 79.2045C38.8021 79.3217 38.7406 79.41 38.6852 79.4984C37.7557 81.0274 36.8221 82.5563 35.9028 84.0915C35.8588 84.1873 35.7863 84.2672 35.6952 84.3202C35.6041 84.3732 35.4989 84.3966 35.394 84.3874C33.6253 84.373 31.8545 84.3874 30.0858 84.3874H29.7842C29.8063 84.227 29.878 84.0775 29.9894 83.96C31.821 81.1842 33.6574 78.4092 35.4986 75.6349C35.5767 75.5472 35.6198 75.4338 35.6198 75.3163C35.6198 75.1989 35.5767 75.0855 35.4986 74.9978C33.8448 72.5153 32.1979 70.0286 30.5577 67.5379C30.4839 67.4248 30.4121 67.3077 30.3033 67.1392H30.7342C32.5542 67.1392 34.3742 67.1392 36.1942 67.1392C36.3173 67.1265 36.4413 67.1538 36.5477 67.2171C36.6541 67.2804 36.7374 67.3763 36.7852 67.4906C37.491 68.7504 38.2215 69.9999 38.9396 71.2514C39.0032 71.3583 39.0361 71.4898 39.1817 71.5699C39.7973 70.4376 40.4888 69.3402 41.0141 68.1688C41.3895 67.3262 41.882 67.0652 42.7828 67.1248C44.1616 67.2132 45.5507 67.1474 46.9357 67.1474H47.3461C47.2415 67.3242 47.1676 67.4536 47.0896 67.581C45.5487 70.0266 44.0118 72.4762 42.4586 74.9135C42.3782 75.0136 42.3354 75.1388 42.3376 75.2672C42.3398 75.3956 42.387 75.5192 42.4709 75.6164C44.2697 78.4003 46.0603 81.1897 47.8427 83.9846C47.9186 84.0894 47.9863 84.2066 48.0971 84.3854Z" fill="black"/>
<path d="M39.8789 37.236H42.8192C43.6154 37.236 44.4094 37.236 45.2056 37.236C45.4477 37.236 45.5585 37.2894 45.6303 37.5381C46.6562 41.1036 47.8484 44.6239 48.7512 48.2244C48.7676 48.2861 48.7984 48.3416 48.8476 48.469C49.1041 47.5278 49.3257 46.6482 49.5863 45.7809C50.4214 43.0087 51.275 40.2425 52.1142 37.4702C52.1614 37.312 52.2148 37.236 52.3933 37.236C54.1353 37.236 55.8814 37.236 57.6153 37.236C57.7076 37.3552 57.6153 37.4415 57.5824 37.5278C55.6769 43.0614 53.7701 48.5957 51.8618 54.1307C51.8451 54.241 51.7854 54.3402 51.6958 54.4065C51.6061 54.4727 51.4939 54.5007 51.3837 54.4842C49.6273 54.4677 47.8709 54.4718 46.1145 54.4842C46.0685 54.4927 46.0213 54.492 45.9756 54.4819C45.9299 54.4719 45.8867 54.4529 45.8484 54.4259C45.8102 54.3989 45.7777 54.3645 45.753 54.3247C45.7282 54.285 45.7116 54.2407 45.7042 54.1944C43.7891 48.6087 41.8638 43.0265 39.9282 37.4476C39.9179 37.388 39.9035 37.3284 39.8789 37.236Z" fill="black"/>
<path d="M48.8566 18.5614C49.7881 14.8622 50.9946 11.3234 52.0452 7.73937C52.1478 7.39412 52.2955 7.29341 52.6608 7.29958C54.2243 7.32219 55.7878 7.31602 57.3513 7.29958C57.6447 7.29958 57.6899 7.35918 57.5935 7.63661C55.6784 13.1675 53.7674 18.6997 51.8605 24.2334C51.843 24.331 51.7877 24.4178 51.7066 24.4747C51.6255 24.5317 51.5252 24.5543 51.4276 24.5375C49.6589 24.5279 47.8895 24.5279 46.1194 24.5375C46.0274 24.5543 45.9326 24.5339 45.8556 24.4807C45.7787 24.4276 45.726 24.346 45.709 24.2539C43.8035 18.7052 41.8884 13.1606 39.9638 7.62017C39.8735 7.35918 39.9104 7.29752 40.1895 7.29958C41.8679 7.30986 43.5484 7.31602 45.2268 7.29958C45.5326 7.29958 45.5839 7.45371 45.6475 7.66949C46.6734 11.2227 47.8614 14.7287 48.7601 18.3189C48.7873 18.4016 48.8195 18.4826 48.8566 18.5614Z" fill="black"/>
<path d="M22.7812 75.7276C22.7812 72.9923 22.7812 70.257 22.7812 67.5217C22.7812 67.195 22.8695 67.1271 23.1916 67.1292C24.7798 67.1477 26.37 67.1456 27.9602 67.1292C28.2351 67.1292 28.2926 67.2032 28.2926 67.4683C28.2844 72.9909 28.2844 78.5122 28.2926 84.0322C28.2926 84.3178 28.229 84.3939 27.9376 84.3918C26.3481 84.3754 24.7579 84.3754 23.167 84.3918C22.8551 84.3918 22.7915 84.3014 22.7915 84.0075C22.7874 81.2475 22.7812 78.4876 22.7812 75.7276Z" fill="black"/>
<path d="M53.5913 74.8333C54.412 74.8333 55.2328 74.8333 56.0535 74.8333C56.1408 74.8234 56.229 74.8418 56.3051 74.8858C56.3812 74.9298 56.4412 74.9971 56.4762 75.0779C57.2969 76.5123 58.1225 77.9433 58.9528 79.3709C59 79.4376 59.0253 79.5173 59.0253 79.599C59.0253 79.6807 59 79.7605 58.9528 79.8271C58.1156 81.2684 57.2833 82.7111 56.4557 84.1551C56.4224 84.2297 56.3668 84.2921 56.2966 84.3337C56.2264 84.3753 56.1451 84.394 56.0638 84.3873C54.41 84.3791 52.7568 84.3791 51.1044 84.3873C51.0184 84.3924 50.9329 84.3708 50.8595 84.3256C50.7861 84.2804 50.7284 84.2137 50.694 84.1346C49.8815 82.7111 49.0608 81.291 48.2318 79.8744C48.1738 79.7924 48.1426 79.6944 48.1426 79.5939C48.1426 79.4934 48.1738 79.3954 48.2318 79.3134C49.0443 77.92 49.85 76.5212 50.6489 75.1169C50.6944 75.0208 50.7691 74.9415 50.8624 74.8906C50.9557 74.8396 51.0627 74.8196 51.168 74.8333C51.9764 74.8415 52.7849 74.8333 53.5913 74.8333Z" fill="#4972B6"/>
<path d="M25.4993 64.7575C24.6909 64.7575 23.8845 64.7575 23.0781 64.7575C22.8463 64.7575 22.7724 64.7102 22.7745 64.4636C22.7888 63.0251 22.7868 61.5865 22.7745 60.148C22.7745 59.9055 22.8401 59.85 23.074 59.85C24.7155 59.8596 26.357 59.8596 27.9985 59.85C28.2037 59.85 28.2776 59.9034 28.2755 60.1233C28.2646 61.5742 28.2646 63.0244 28.2755 64.4739C28.2755 64.6938 28.214 64.7513 27.9985 64.7472C27.1634 64.7493 26.3324 64.7575 25.4993 64.7575Z" fill="black"/>
</g>
<defs>
<clipPath id="clip0_519_16418">
<rect width="105.575" height="84.9361" fill="white" transform="translate(0.410156)"/>
</clipPath>
</defs>
</svg>
