<svg width="86" height="32" viewBox="0 0 86 32" fill="none" xmlns="http://www.w3.org/2000/svg">
<g clip-path="url(#clip0_519_16451)">
<path d="M51.2878 31.7316H46.0641C45.4864 29.4774 44.8802 27.1733 44.3048 24.8693C43.8856 23.2179 43.341 21.5864 43.1042 19.9075C42.8508 18.0967 42.0007 17.6658 40.31 18.1639V31.6269H35.084V1.44788C38.8869 1.74927 42.6377 1.77668 46.2891 2.4218C49.0974 2.91997 50.4969 5.13433 50.7124 8.13579C50.7893 9.31424 50.7893 10.4968 50.7124 11.6753C50.5679 14.0864 49.4953 15.9097 47.3736 17.068C48.6736 21.9475 49.9547 26.7499 51.2878 31.7316ZM40.3503 5.61008V14.5173C42.1831 14.5697 44.1082 14.9458 45.1785 13.1125C45.7189 12.2019 46.0125 11.1533 46.0275 10.0799C46.0425 9.0066 45.7784 7.94934 45.2637 7.02239C44.1792 4.99733 42.1854 5.62751 40.3503 5.62004V5.61008Z" fill="black"/>
<path d="M33.0431 31.6893H28.0302V18.4206H22.2051V31.6918H17.0762V1.81909H22.1838V14.1313H27.9781V1.86642H33.0431V31.6893Z" fill="black"/>
<path d="M51.7679 1.44788H56.8068C56.8423 2.07806 56.9087 2.6933 56.911 3.3185C56.911 9.40364 56.8992 15.4888 56.9276 21.5739C56.9191 22.8138 57.0182 24.0519 57.2236 25.2728C57.4959 26.7549 58.3365 27.6541 59.9278 27.6067C61.519 27.5594 62.3123 26.6901 62.5325 25.1632C62.7146 23.9408 62.8143 22.7065 62.8309 21.4693C62.8593 14.8561 62.8427 8.24042 62.8427 1.48524H67.8154C67.8702 1.81483 67.9066 2.14751 67.9243 2.48158C67.9243 9.15705 67.9432 15.8325 67.9053 22.508C67.8902 23.6893 67.7616 24.8659 67.5217 26.0201C66.8871 29.171 65.1206 31.2508 61.9831 31.5423C60.1693 31.7092 58.2537 31.7017 56.4966 31.2633C53.7072 30.5708 52.509 28.1971 52.1017 25.3899C51.9013 23.9881 51.7976 22.573 51.7915 21.1554C51.7489 14.6693 51.7679 8.17316 51.7679 1.44788Z" fill="black"/>
<path d="M85.0739 11.2865H80.2339C80.1841 10.1233 80.1699 9.02232 80.087 7.92635C79.945 6.05074 79.2132 5.24868 77.6457 5.16649C75.7845 5.06934 74.7331 5.75184 74.6929 7.70715C74.5721 13.4884 74.6147 19.2746 74.6929 25.0559C74.7142 26.5828 75.64 27.4919 77.1816 27.6289C78.8652 27.7784 79.99 26.9987 80.2812 25.3398C80.5962 23.5688 80.5914 21.7356 80.7406 19.7504H77.6765V16.2632H85.28V31.288H81.979C81.8606 30.6379 81.7422 29.9678 81.5551 28.9491C80.1344 31.1136 78.3206 31.9705 76.0426 31.7936C72.6115 31.5246 69.9428 29.6291 69.7297 26.0871C69.3453 19.7399 69.3303 13.3738 69.6847 7.02466C69.8883 3.42041 72.0527 1.69426 75.5098 1.25089C77.0659 1.05292 78.6415 1.10753 80.1818 1.4128C83.2388 2.03551 84.65 4.36942 85.0455 7.43067C85.1923 8.63873 85.0739 9.88415 85.0739 11.2865Z" fill="black"/>
<path d="M10.7657 9.96121C10.5289 8.7656 10.4152 7.82904 10.1642 6.93483C9.79483 5.61468 8.87846 5.0667 7.58794 5.19124C6.29741 5.31578 5.4852 6.29219 5.6178 7.41307C5.78592 8.84032 6.24056 10.4444 7.08828 11.523C8.4309 13.2317 10.214 14.5568 11.7958 16.0613C14.5852 18.7165 16.1717 21.9347 15.5087 25.9699C14.893 29.7061 12.0183 31.8757 8.14674 31.786C4.03364 31.6913 1.45495 29.3225 0.806139 25.0134C0.699582 24.3159 0.673551 23.6061 0.585938 22.6346L4.89794 21.7205C5.21051 23.0929 5.39762 24.3134 5.77175 25.4567C6.24534 26.894 7.24219 27.7433 8.74109 27.4494C10.3371 27.1381 10.6355 25.8453 10.5881 24.3533C10.5194 22.3606 9.51071 20.9209 8.18703 19.6655C6.60525 18.171 4.97612 16.7139 3.39433 15.2119C0.848804 12.7958 0.228393 9.70714 0.836953 6.32457C1.49761 2.65307 5.02817 0.458639 9.03946 1.0689C12.75 1.63432 15.35 4.82757 15.0327 8.50904C14.9828 8.70768 14.8878 8.89059 14.7558 9.04202C14.6238 9.19345 14.4588 9.30888 14.275 9.37835C13.1313 9.6623 11.9639 9.78186 10.7657 9.96121Z" fill="black"/>
</g>
<defs>
<clipPath id="clip0_519_16451">
<rect width="84.6939" height="30.8267" fill="white" transform="translate(0.578125 0.989258)"/>
</clipPath>
</defs>
</svg>
