<svg width="189" height="63" viewBox="0 0 189 63" fill="none" xmlns="http://www.w3.org/2000/svg">
<path d="M58.727 39.9092C58.5626 39.7723 58.3846 39.6764 58.1928 39.5942C58.0011 39.6764 57.823 39.7723 57.6587 39.9092C56.5767 40.7858 56.5767 42.4292 57.6587 43.3195C57.823 43.4564 58.0011 43.5523 58.1928 43.6345C58.3846 43.5523 58.5626 43.4564 58.727 43.3195C59.7952 42.4292 59.7952 40.7858 58.727 39.9092Z" fill="#8C8BC3"/>
<path d="M33.6228 35.6224C33.4859 35.7457 33.3626 35.8827 33.2667 36.047C33.2393 36.1018 33.1983 36.1566 33.1709 36.2114C33.1709 36.225 33.1846 36.225 33.1846 36.2387C33.7187 37.2385 34.9787 37.6768 36.0196 37.1974C36.4852 36.9783 36.8413 36.6359 37.0604 36.2114C36.4304 34.965 34.7459 34.609 33.6228 35.6224Z" fill="#8C8BC3"/>
<path d="M53.3172 18.3659C53.3035 18.1057 53.2487 17.8591 53.1391 17.6263C52.9885 17.2839 52.7693 17.01 52.5091 16.7909C52.1941 16.5307 51.797 16.3663 51.3724 16.3115C51.2217 16.2978 51.0848 16.2978 50.9341 16.3115C50.715 16.5718 50.5643 16.8868 50.4822 17.2291C50.2083 18.4618 51.0437 19.667 52.2763 19.8587C52.4543 19.8861 52.6324 19.8861 52.8104 19.8724C53.1528 19.4752 53.3446 18.9548 53.3172 18.3659Z" fill="#8C8BC3"/>
<path d="M50.7698 27.9116C48.6469 26.8297 46.1132 27.8158 45.223 29.9386C45.5791 30.8014 46.2365 31.5273 47.0993 31.9656C49.2222 33.0475 51.7558 32.0614 52.6461 29.9386C52.29 29.0895 51.6326 28.3499 50.7698 27.9116Z" fill="#8C8BC3"/>
<path d="M71.0119 20.6257C71.3954 20.7079 71.7789 20.6805 72.1487 20.5709C72.4774 20.4614 72.7924 20.2696 73.0526 20.0094C73.2032 19.8588 73.3265 19.6944 73.4224 19.5027C73.3128 19.3109 73.1896 19.1192 73.0252 18.9549C72.8335 18.7631 72.6143 18.6125 72.3678 18.5166C71.6693 18.2153 70.9024 18.2838 70.2861 18.6809C69.9711 18.8864 69.7109 19.174 69.5465 19.5027C69.8341 20.0916 70.3682 20.5025 71.0119 20.6257Z" fill="#8C8BC3"/>
<path d="M51.5367 4.35523C51.2628 3.73893 50.7972 3.24588 50.1945 2.94458C49.5372 3.27328 49.0304 3.8348 48.7702 4.53328C48.5511 5.13588 48.5511 5.80697 48.7565 6.40958C49.0167 7.14915 49.5372 7.71067 50.1808 8.02567C51.5504 7.36828 52.153 5.73849 51.5367 4.35523Z" fill="#8C8BC3"/>
<path d="M26.7065 18.5303C26.6106 18.503 26.5011 18.4893 26.4052 18.4893C26.2135 18.4893 26.008 18.544 25.83 18.6399C25.6519 18.7358 25.515 18.8864 25.4054 19.0645C25.5561 19.3247 25.8026 19.5164 26.1039 19.5986C26.4463 19.6945 26.8024 19.626 27.0763 19.4069C27.1996 19.311 27.3091 19.1877 27.3776 19.0645C27.2406 18.7906 26.9941 18.6125 26.7065 18.5303Z" fill="#8C8BC3"/>
<path d="M28.3363 43.4699C28.0624 42.9769 27.6378 42.6208 27.1448 42.4427C26.9667 42.3743 26.775 42.3332 26.5833 42.3195C26.2546 42.2921 25.9396 42.3469 25.6383 42.4564C25.6246 42.5112 25.5972 42.566 25.5835 42.6071C25.378 43.3467 25.5424 44.0862 26.0217 44.6477C26.5011 45.2093 27.2133 45.4969 27.9802 45.401C28.1446 45.3873 28.3089 45.3325 28.4596 45.2777C28.5828 44.949 28.6239 44.5793 28.5828 44.1958C28.5554 43.9493 28.4596 43.689 28.3363 43.4699Z" fill="#8C8BC3"/>
<path d="M50.4274 57.3984C49.9617 57.1108 49.455 56.9739 48.9482 56.9739C47.88 56.9739 46.8254 57.5902 46.3461 58.6584C46.6337 59.3158 47.1678 59.85 47.8663 60.1376C48.3045 60.3156 48.7976 60.3841 49.2769 60.3293C50.1945 60.2197 50.9752 59.6856 51.4135 58.8913C51.4545 58.8228 51.4956 58.7406 51.523 58.6584C51.3039 58.1654 50.9341 57.7134 50.4274 57.3984Z" fill="#8C8BC3"/>
<path d="M72.45 43.9356C72.3541 43.7575 72.2035 43.6206 72.0254 43.511C71.7652 43.6616 71.5735 43.9082 71.4913 44.2095C71.3954 44.5519 71.4639 44.9079 71.683 45.1956C71.7789 45.3188 71.9022 45.4284 72.0254 45.4969C72.2856 45.3462 72.4774 45.0997 72.5596 44.7984C72.6554 44.5108 72.6143 44.2095 72.45 43.9356Z" fill="#8C8BC3"/>
<path d="M73.5183 22.0911C73.7648 21.9542 73.9976 21.7898 74.2167 21.5981C74.7646 21.1188 75.1754 20.5024 75.3946 19.8177C75.8054 18.5851 75.6411 17.284 74.9426 16.2157C74.34 15.2844 73.4087 14.6407 72.313 14.4216C71.5735 14.2709 70.8476 14.312 70.1765 14.5311C69.8478 14.6407 69.5328 14.7914 69.2452 14.9694C68.67 15.3255 67.9441 15.3255 67.3552 14.9831L55.0291 7.86136C54.2074 7.38201 53.7143 6.50549 53.728 5.56049C53.7417 4.84832 53.5911 4.13614 53.2898 3.47875C52.7967 2.41049 51.9339 1.56136 50.852 1.08201C49.6057 0.534186 48.2361 0.534186 47.0035 1.08201C45.8257 1.60245 44.9217 2.53375 44.4561 3.72527C44.2233 4.31419 44.1137 4.91679 44.1274 5.5331C44.1411 6.49179 43.6617 7.38201 42.8263 7.86136L29.6648 15.4624C29.0348 15.8322 28.2678 15.887 27.5967 15.6131C27.4735 15.5583 27.3365 15.5172 27.1996 15.4761C26.3915 15.257 25.5561 15.3666 24.8439 15.7911C24.0085 16.2705 23.447 17.1059 23.31 18.092C23.2415 18.6124 23.31 19.1329 23.5017 19.6259C23.7483 20.2285 24.1454 20.7216 24.6522 21.064C25.1452 21.3927 25.4191 21.9542 25.4191 22.5431V39.2792C25.4191 39.9366 25.0494 40.5255 24.4604 40.8405C24.0359 41.0596 23.6524 41.3609 23.31 41.7307C22.8033 42.2785 22.4609 42.9633 22.3239 43.6892C22.0774 44.9629 22.4061 46.2366 23.2415 47.209C23.7346 47.7842 24.3509 48.1951 25.0083 48.4279C25.7615 48.7018 26.597 48.7429 27.3776 48.5511C27.7063 48.469 28.2404 48.1677 28.6787 47.8938C29.1444 47.5924 29.747 47.5787 30.2263 47.8527L42.7989 55.1114C43.6344 55.5907 44.1274 56.4946 44.1137 57.4533C44.1137 58.0422 44.2096 58.6311 44.4287 59.2201C44.7574 60.0829 45.3189 60.8361 46.0722 61.384C46.9213 62.0003 47.9074 62.3153 48.9072 62.3153C49.4687 62.3153 50.0439 62.2194 50.5917 62.014C51.4272 61.699 52.1667 61.1648 52.7009 60.4527C53.3994 59.5487 53.7143 58.4942 53.7007 57.4533C53.687 56.4809 54.2074 55.577 55.0565 55.0977L68.1633 47.5377C68.7933 47.1679 69.5739 47.0994 70.245 47.387C70.3683 47.4418 70.5052 47.4829 70.6285 47.524C70.9024 47.5924 71.1626 47.6335 71.4365 47.6335C72.1487 47.6335 72.8609 47.387 73.4361 46.894C73.7785 46.6201 74.0387 46.264 74.2304 45.8668C74.6824 44.9081 74.6276 43.8535 74.1209 42.9633C73.9428 42.662 73.7237 42.3881 73.4635 42.169C72.8061 41.5938 72.4089 40.772 72.4089 39.8955V23.9948C72.45 23.2142 72.8472 22.4746 73.5183 22.0911ZM51.9202 9.25832C52.3311 8.92962 52.8789 8.90223 53.3172 9.14875L66.5335 16.8046C66.78 16.9416 66.6704 17.3114 66.3828 17.3114L58.1243 16.969C57.3711 16.9416 56.6726 16.5033 56.3302 15.8185C55.7413 14.6818 54.6457 13.8327 53.2898 13.6135H53.2761C52.7146 13.5314 52.2626 13.1205 52.0983 12.5864L51.4957 10.5731C51.3587 10.0938 51.523 9.55962 51.9202 9.25832ZM50.4959 17.2292C50.7287 16.1335 51.7833 15.394 52.8926 15.5172C53.3172 15.572 53.7007 15.7364 54.0294 15.9966C54.3033 16.2157 54.5224 16.5033 54.6594 16.832C54.7689 17.0648 54.8237 17.3251 54.8374 17.5716C54.9059 19.0096 53.6459 20.0779 52.3037 19.8588C51.0574 19.667 50.222 18.4618 50.4959 17.2292ZM52.8378 32.5135C52.1804 35.0061 49.4139 36.2524 47.113 35.0883C45.4422 34.2392 44.5657 32.3081 45.045 30.4866C45.7024 27.994 48.4689 26.7477 50.7698 27.9118C52.4407 28.7609 53.3172 30.692 52.8378 32.5135ZM46.2639 4.53332C46.5789 3.67049 47.2637 3.0131 48.1676 2.75288C48.6333 2.61593 49.1263 2.60223 49.6057 2.72549C50.4822 2.94462 51.1944 3.53353 51.5504 4.34158C52.1804 5.77962 51.523 7.45049 50.085 8.08049C48.5785 8.73788 46.8117 7.98462 46.2639 6.40962C46.0448 5.80701 46.0448 5.13593 46.2639 4.53332ZM29.158 19.9409C29.3635 19.5574 29.4867 19.1329 29.5141 18.6946C29.5552 18.1468 29.8565 17.6401 30.3359 17.3661L44.3328 9.28571C44.8944 8.95701 45.5928 8.9981 46.127 9.38158C46.8254 9.88832 47.6472 10.1896 48.4963 10.2718C49.0304 10.3266 49.4961 10.6964 49.6467 11.2031L50.263 13.2301C50.4137 13.7231 50.263 14.2572 49.8796 14.5996C49.1948 15.2159 48.7017 16.0514 48.5511 17.0374C48.373 18.1468 48.647 19.2151 49.2496 20.0642C49.3454 20.2011 49.5646 20.4203 49.8111 20.6394C50.3315 21.1051 50.537 21.8309 50.3589 22.502L49.907 24.1866C49.7015 24.9261 49.0715 25.474 48.3046 25.5561C46.1407 25.8027 44.1822 27.2133 43.3604 29.3772C43.1687 29.884 43.0454 30.4044 43.0044 30.9248C42.9359 31.6507 42.4017 32.2396 41.7033 32.4314L39.9502 32.897C39.3202 33.0614 38.6491 32.8559 38.2109 32.3766C37.5124 31.6233 36.5674 31.1577 35.5676 31.0618C34.6226 30.9659 33.7872 30.377 33.3489 29.5416L29.1854 21.4474C28.9115 20.9818 28.9115 20.4066 29.158 19.9409ZM36.0333 37.1974C34.9924 37.6631 33.7324 37.2385 33.1983 36.2388C32.8285 35.554 32.8422 34.7185 33.2804 34.0201C33.3763 33.8694 33.4996 33.7188 33.6365 33.5955C34.7596 32.5683 36.4441 32.9381 37.0878 34.1981C37.6494 35.3074 37.1837 36.677 36.0333 37.1974ZM25.4191 19.0644C25.2685 18.8042 25.2274 18.4892 25.3096 18.2016C25.3917 17.9003 25.5835 17.6538 25.8437 17.5031C26.0217 17.4072 26.2135 17.3524 26.4189 17.3524C26.5148 17.3524 26.6244 17.3661 26.7202 17.3935C27.0626 17.4894 27.3365 17.7222 27.4735 18.0509C27.6789 18.5303 27.5283 19.1055 27.1037 19.4205C26.8161 19.6259 26.46 19.6944 26.1313 19.6122C25.8163 19.5164 25.5698 19.3246 25.4191 19.0644ZM27.4461 46.442C27.2133 46.5653 26.953 46.6474 26.6928 46.6885C25.9259 46.7844 25.2137 46.4968 24.7343 45.9353C24.255 45.3738 24.0907 44.6342 24.2961 43.8946C24.3646 43.6344 24.5015 43.3742 24.6659 43.1688C25.1315 42.5661 25.8437 42.2648 26.5696 42.3196C26.7613 42.3333 26.953 42.3744 27.1311 42.4429C27.6241 42.6209 28.0487 42.977 28.3226 43.4701C28.4459 43.7029 28.528 43.9494 28.5691 44.2096C28.7061 45.1272 28.2678 45.9901 27.4461 46.442ZM28.8841 40.4433C28.6513 40.7035 28.2678 40.7857 27.9528 40.6488H27.9391C27.6104 40.5255 27.3913 40.2105 27.3913 39.8544V23.4059C27.3913 23.132 27.7611 23.0361 27.8844 23.2827L31.5685 30.4455C32.0067 31.2946 32.0067 32.3081 31.5274 33.1298C31.185 33.7188 30.9933 34.3898 30.9659 35.0746C30.9522 35.4855 31.0207 36.0881 31.185 36.6085C31.3767 37.2385 31.2398 37.9233 30.7878 38.4027L28.8841 40.4433ZM51.4135 58.9051C50.9752 59.6994 50.1946 60.2198 49.277 60.3431C48.7976 60.3979 48.3183 60.3431 47.8663 60.1514C46.8665 59.7405 46.2091 58.8366 46.0996 57.7546C46.0585 57.3711 46.1133 56.974 46.2365 56.6179C46.6611 55.3853 47.7841 54.6868 48.9346 54.6868C49.4413 54.6868 49.948 54.8238 50.4137 55.1114C51.7148 55.8783 52.153 57.5766 51.4135 58.9051ZM51.5778 51.5368C51.0711 52.3448 50.1535 52.7831 49.2085 52.7283C48.2498 52.6735 47.2911 52.9064 46.4694 53.3994C45.6613 53.8788 44.6478 53.9198 43.8398 53.4405L31.4315 46.2777C30.9111 45.9764 30.5961 45.4011 30.6783 44.8122C30.7604 44.1822 30.5961 43.5796 30.3633 43.0866C30.1167 42.5387 30.2263 41.8951 30.6372 41.4568L32.2396 39.7174C32.6915 39.2381 33.3763 39.019 34.02 39.197C34.9924 39.4709 36.0744 39.3888 37.033 38.882C38.1835 38.2931 38.9367 37.2385 39.1833 36.0744C39.3202 35.4444 39.8133 34.9514 40.4296 34.787L42.1963 34.3077C42.8811 34.1159 43.6344 34.3761 44.0452 34.9514C44.7026 35.8827 45.6476 36.6496 46.798 37.0879C48.2361 37.6357 49.7563 37.5946 51.0848 37.0742C51.975 36.7318 52.9885 36.9509 53.6733 37.622L54.358 38.3068C54.9607 38.9094 55.2072 39.7722 55.0017 40.6077C54.7689 41.5527 54.8785 42.5798 55.3167 43.4701C55.7002 44.2233 55.6317 45.1272 55.1798 45.8394L51.5778 51.5368ZM67.273 45.7846L54.8237 52.9748C54.1937 53.3309 53.4952 52.6324 53.865 52.0161L57.015 46.6885C57.3848 46.0722 58.0696 45.7161 58.7954 45.7572C59.9322 45.8257 61.0963 45.4148 61.9728 44.552L61.9865 44.5383C62.6028 43.922 63.493 43.6892 64.3285 43.922C65.2187 44.1685 66.3143 44.4698 67.1498 44.7164C67.6428 44.867 67.725 45.5381 67.273 45.7846ZM57.6587 39.9092C58.453 39.2518 59.6309 39.2518 60.4252 39.9092C61.5072 40.7857 61.5072 42.4292 60.4252 43.3194C59.6309 43.9768 58.453 43.9768 57.6587 43.3194C56.5767 42.4292 56.5767 40.7857 57.6587 39.9092ZM69.5739 42.0046L69.5602 42.0183C68.9576 42.5251 68.177 42.7305 67.41 42.5524L64.7257 41.9224C63.9176 41.7307 63.2465 41.1418 63 40.3474C62.8083 39.7311 62.4659 39.1422 61.9728 38.6629C60.9046 37.5946 59.398 37.2385 58.0285 37.5672C57.2067 37.7727 56.3439 37.5124 55.7413 36.9235L55.0839 36.2661C54.3991 35.5814 54.18 34.5542 54.5224 33.6366V33.6229C55.4948 31.0481 54.5772 28.2131 52.4543 26.6655C51.838 26.2135 51.5641 25.4329 51.7559 24.6933L52.1804 23.0909C52.3585 22.4335 52.8789 21.8994 53.5363 21.7488C54.6046 21.5022 55.5359 20.8448 56.1111 19.9135C56.522 19.2698 57.2341 18.8727 58.0011 18.9138L66.1911 19.2561C66.8348 19.2835 67.3826 19.6807 67.6565 20.2559C68.04 21.0777 68.6837 21.7624 69.5054 22.187C70.067 22.4746 70.4367 23.0498 70.4367 23.6935V40.1283C70.4778 40.8542 70.1491 41.539 69.5739 42.0046ZM72.45 43.9357C72.6007 44.1959 72.6417 44.5109 72.5596 44.7985C72.4637 45.1409 72.2309 45.4148 71.9022 45.5518C71.4228 45.7572 70.8339 45.6066 70.5326 45.182C70.3272 44.8944 70.2587 44.5383 70.3409 44.1959C70.423 43.8946 70.6148 43.6481 70.875 43.4974C71.053 43.4016 71.2448 43.3468 71.4502 43.3468C71.5461 43.3468 71.6557 43.3605 71.7515 43.3879C72.0528 43.4838 72.2994 43.6755 72.45 43.9357ZM72.135 20.5709C71.7789 20.6942 71.3817 20.7079 70.9983 20.6257C70.2861 20.4751 69.6835 19.982 69.4096 19.2698C69.3137 19.0096 69.2589 18.7357 69.2589 18.4618C69.2726 17.6948 69.6424 17.0374 70.2587 16.6266C70.875 16.2294 71.642 16.1609 72.3404 16.4622C72.587 16.5718 72.8061 16.7224 72.9978 16.9005C73.6552 17.5579 73.8333 18.5166 73.4635 19.3657C73.3676 19.5985 73.217 19.8177 73.0389 19.9957C72.7787 20.2833 72.4637 20.4614 72.135 20.5709Z" fill="#7A5CA6"/>
<path d="M80.188 28.3225L82.0781 26.2134C83.4613 28.1171 85.1322 28.9936 87.1728 28.9936C88.8848 28.9936 90.1585 28.3636 90.1585 26.6791C90.1585 25.5697 89.5696 24.8165 87.7891 24.5015L85.2554 24.0358C82.6122 23.5565 80.955 22.1184 80.955 19.5162C80.955 16.3662 83.3517 14.8049 86.5702 14.8049C88.8574 14.8049 90.9802 15.5993 92.5278 17.2428L90.8296 19.3656C89.6381 18.0097 87.9946 17.2975 86.4059 17.2975C84.9815 17.2975 83.927 17.8728 83.927 19.2286C83.927 20.1599 84.42 20.8721 85.9676 21.146L88.4876 21.6117C91.2815 22.1184 93.1989 23.5702 93.1989 26.4188C93.1989 29.651 90.7611 31.6506 86.9948 31.6506C84.1324 31.6643 81.585 30.4454 80.188 28.3225Z" fill="#7A5CA6"/>
<path d="M97.7322 23.2688C97.7322 17.8727 100.663 14.8186 105.415 14.8186C110.127 14.8186 113.112 17.8727 113.112 23.2688C113.112 28.6649 110.127 31.719 105.415 31.719C100.663 31.719 97.7322 28.6649 97.7322 23.2688ZM110.045 23.2688C110.045 19.7353 108.387 17.503 105.415 17.503C102.402 17.503 100.786 19.7353 100.786 23.2688C100.786 26.816 102.402 29.0484 105.415 29.0484C108.387 29.0484 110.045 26.816 110.045 23.2688Z" fill="#7A5CA6"/>
<path d="M118.659 15.0652H121.754V28.8293H129.602V31.4726H118.659V15.0652Z" fill="#7A5CA6"/>
<path d="M134.573 15.0652H137.669V31.4863H134.573V15.0652Z" fill="#7A5CA6"/>
<path d="M144.243 15.0652H150.241C155.884 15.0652 158.472 18.0919 158.472 23.3647C158.472 28.5417 155.774 31.4863 150.228 31.4863H144.256V15.0652H144.243ZM149.94 28.8156C153.843 28.8156 155.391 26.8982 155.391 23.2415C155.391 19.6806 153.939 17.7358 150.2 17.7358H147.338V28.8156H149.94Z" fill="#7A5CA6"/>
<path d="M92.7881 41.6484V49.1125H90.8844L90.8707 47.0445C90.1037 48.3045 88.5561 49.3043 86.3922 49.3043C82.3931 49.3043 80.147 46.2775 80.147 42.0456C80.147 37.5945 82.6533 34.7869 86.7209 34.7869C89.6518 34.7869 91.665 36.3345 92.5142 38.5669L90.5694 39.3201C89.9257 37.6766 88.6109 36.7043 86.7346 36.7043C83.9133 36.7043 82.3657 38.8819 82.3657 42.0045C82.3657 44.8669 83.6394 47.3184 86.6387 47.3184C89.0218 47.3184 90.4872 45.7708 90.7063 43.4562H87.077V41.6621H92.7881V41.6484Z" fill="#8C8BC3"/>
<path d="M98.1431 34.9922H104.388C107.1 34.9922 108.99 36.5261 108.99 39.005C108.99 40.9361 107.894 42.2646 106.114 42.7302L109.497 49.1261H106.963L103.909 43.0315H100.348V49.1261H98.1294V34.9922H98.1431ZM104.457 41.2237C106.018 41.2237 106.771 40.3609 106.771 39.0735C106.771 37.7039 105.908 36.9096 104.251 36.9096H100.375V41.2237H104.457Z" fill="#8C8BC3"/>
<path d="M113.167 42.0456C113.167 37.4712 115.66 34.7869 119.673 34.7869C123.644 34.7869 126.178 37.4712 126.178 42.0456C126.178 46.6336 123.644 49.3043 119.673 49.3043C115.673 49.3043 113.167 46.6336 113.167 42.0456ZM124 42.0456C124 38.7997 122.398 36.7453 119.673 36.7453C116.92 36.7453 115.345 38.7997 115.345 42.0456C115.345 45.2914 116.906 47.3595 119.673 47.3595C122.384 47.3595 124 45.2914 124 42.0456Z" fill="#8C8BC3"/>
<path d="M130.903 44.0039V34.9922H133.122V44.0861C133.122 46.0994 134.245 47.2909 136.135 47.2909C138.025 47.2909 139.162 46.0857 139.162 44.0861V34.9922H141.394V43.8944C141.394 47.3046 139.531 49.3041 136.135 49.3041C132.752 49.3041 130.903 47.332 130.903 44.0039Z" fill="#8C8BC3"/>
<path d="M147.009 34.9922H153.72C156.651 34.9922 158.459 36.6905 158.459 39.5118C158.459 42.2646 156.733 43.8533 153.72 43.8533H149.228V49.1124H147.009V34.9922ZM153.528 41.9359C155.391 41.9359 156.254 41.1004 156.254 39.4844C156.254 37.8683 155.391 36.9096 153.528 36.9096H149.228V41.9359H153.528Z" fill="#8C8BC3"/>
</svg>
