<svg width="151" height="27" viewBox="0 0 151 27" fill="none" xmlns="http://www.w3.org/2000/svg">
<path d="M103.615 26.5776V1.29221C103.715 1.227 103.775 1.14995 103.832 1.15291C107.767 1.30408 111.771 1.04324 115.621 1.71309C121.634 2.76232 124.881 7.51354 124.81 14.1202C124.741 20.2259 121.178 24.8971 115.311 25.8396C111.515 26.4472 107.611 26.3494 103.615 26.5776ZM108.635 22.271C110.004 22.2058 111.25 22.194 112.491 22.0813C117.104 21.6604 119.517 19.0107 119.713 14.1972C119.875 10.2285 118.467 7.44537 115.615 6.15605C113.39 5.14831 111.062 5.17498 108.635 5.29947V22.271Z" fill="black"/>
<path d="M94.3419 17.6616V0.882382H98.7806V26.5595C97.7403 26.5595 96.6653 26.62 95.6019 26.5202C95.284 26.4899 94.9575 26.0482 94.7147 25.7305C90.881 20.7224 87.0549 15.7092 83.2366 10.6909C83.0314 10.4217 82.8118 10.1645 82.4159 9.68043V26.502H77.957V0.785565C78.9722 0.744405 79.9888 0.756539 81.0028 0.821888C81.364 0.864244 81.7541 1.26965 82.0142 1.60547C85.8672 6.64791 89.7202 11.6903 93.5733 16.7328C93.7495 16.9839 93.9518 17.2078 94.3419 17.6616Z" fill="black"/>
<path d="M35.2467 0.772265C42.4984 1.07435 47.7191 6.72631 47.4559 13.9823C47.1699 21.5918 41.6488 26.8451 34.2082 26.5671C27.0852 26.3013 21.8759 20.3654 22.1935 12.8918C22.511 5.85632 28.2838 0.491328 35.2467 0.772265ZM42.9504 13.6863C42.9819 8.86809 39.592 5.3035 34.9549 5.27934C30.2176 5.25517 26.6904 8.77444 26.6589 13.5534C26.6275 18.2447 30.1489 21.8818 34.766 21.9302C39.3832 21.9785 42.9161 18.4592 42.9504 13.6984V13.6863Z" fill="black"/>
<path d="M1.12121 17.5657H5.85405C5.85405 18.0705 5.85405 18.478 5.85405 18.9068C5.85405 20.6187 6.42529 21.5036 7.95053 22.0996C8.69134 22.42 9.48951 22.5622 10.2879 22.5159C11.0864 22.4696 11.8653 22.2361 12.5691 21.832C13.5831 21.2573 14.2057 20.3664 14.1572 19.0953C14.1115 17.879 13.2717 17.3042 12.332 16.9971C10.7811 16.4893 9.19013 16.1244 7.61633 15.6774C6.79158 15.459 5.97833 15.194 5.17998 14.8837C2.87212 13.938 1.29829 12.2869 1.04123 9.56837C0.755606 6.50322 1.50968 3.81209 4.13458 2.16092C7.9591 -0.244376 11.9007 -0.207886 15.7395 2.16092C18.2502 3.69958 19.0014 5.8099 18.7243 9.88461H14.0886C14.0515 9.58053 14.0029 9.31294 13.9972 9.05143C13.9401 6.37854 13.0689 5.33857 10.5383 4.998C9.24166 4.77678 7.91521 5.10418 6.8423 5.91025C5.11141 7.24213 5.25992 9.53188 7.21931 10.4076C8.56746 11.0158 10.0527 11.2712 11.4637 11.7334C12.769 12.1592 14.1058 12.5271 15.3397 13.1231C19.7754 15.2517 19.744 21.8077 16.6135 24.6235C13.1175 27.7647 6.53668 27.7617 3.0949 24.5475C1.38114 22.9267 0.812739 20.938 1.12121 17.5657Z" fill="black"/>
<path d="M51.3195 1.15283H56.2449V2.396C56.2449 6.27162 56.2449 10.1711 56.2449 14.0586C56.2518 14.9419 56.3258 15.8231 56.4659 16.694C57.0327 20.2089 59.1213 22.0603 62.4426 22.0603C65.764 22.0603 67.8583 20.203 68.4166 16.694C68.568 15.7083 68.6447 14.7114 68.6461 13.7128C68.6716 9.55993 68.6461 5.40706 68.6461 1.17072H73.4864C73.4864 3.87769 73.5091 6.53694 73.4864 9.17534C73.4581 11.7124 73.5743 14.2733 73.288 16.7775C72.4124 24.3886 66.8324 27.2118 60.6941 26.4606C55.1113 25.76 51.909 22.585 51.3932 16.5509C50.9738 11.4739 51.3195 6.33125 51.3195 1.15283Z" fill="black"/>
<path d="M122.582 1.16073C124.776 1.16073 126.623 1.1307 128.471 1.18774C128.866 1.24762 129.223 1.46278 129.467 1.78807C134.665 8.48785 134.665 19.2969 129.467 25.9997C129.282 26.2771 129.002 26.4722 128.683 26.546C126.772 26.5941 124.861 26.573 122.634 26.573C126.714 23.1361 128.841 18.9608 128.82 13.8399C128.8 8.71899 126.717 4.58866 122.582 1.16073Z" fill="black"/>
<path d="M133.361 1.17177C134.995 1.17177 136.476 1.10601 137.955 1.21958C138.319 1.24647 138.784 1.78441 138.968 2.19982C142.284 9.67112 142.37 17.1932 139.378 24.802C138.856 26.1289 138.184 26.7385 136.76 26.5413C135.713 26.3978 134.636 26.5144 133.453 26.5144C138.267 18.03 138.242 9.69801 133.361 1.17177Z" fill="black"/>
<path d="M143.031 1.16181C144.585 1.16181 145.996 1.12591 147.401 1.1977C147.629 1.1977 147.936 1.64942 148.04 1.95456C150.789 9.90014 150.782 17.8467 148.017 25.7943C147.934 25.9797 147.812 26.1423 147.66 26.2694C147.508 26.3965 147.331 26.4847 147.142 26.5272C146.055 26.617 144.954 26.5601 143.859 26.5571H143.031C146.511 18.091 146.539 9.69373 143.031 1.16181Z" fill="black"/>
</svg>
